<svg version="1.2" baseProfile="tiny-ps" xmlns="http://www.w3.org/2000/svg" viewBox="0 0 996 737" width="996" height="737">
	<title>Background</title>
	<style>
		tspan { white-space:pre }
		.shp0 { fill: #303841 } 
		.shp1 { fill: #f3f3f3 } 
		.shp2 { opacity: 0.8;fill: #2f3741 } 
	</style>
	<g id="Background">
		<path id="Path 0" class="shp0" d="M494.5 2.04C492.85 3.08 490.15 4.62 488.5 5.47C486.85 6.31 484.15 7.88 482.5 8.97C480.85 10.05 478.15 11.64 476.5 12.5C474.85 13.37 472.26 14.73 470.75 15.54C469.24 16.34 468 17.45 468 18C468 18.55 473.29 26.67 479.75 36.04C486.21 45.42 491.77 52.73 492.11 52.29C492.44 51.86 497.1 42.05 502.47 30.5C507.83 18.95 512.4 8.94 512.61 8.25C512.82 7.56 511.54 6.31 509.75 5.47C507.96 4.63 505.15 3.08 503.5 2.04C501.85 1 499.82 0.15 499 0.15C498.17 0.15 496.15 1 494.5 2.04Z" />
		<path id="Path 1" class="shp1" d="M502.91 29.33C497.3 41.52 492.44 51.86 492.11 52.29C491.77 52.73 486.15 45.31 479.61 35.79C473.07 26.28 467.45 18.12 467.11 17.66C466.78 17.2 465.23 17.65 463.69 18.66C462.14 19.67 461.27 20.72 461.76 21C462.24 21.27 468.17 29.6 474.93 39.5C481.69 49.4 487.59 57.95 488.03 58.5C488.52 59.1 489.42 58.3 490.28 56.5L491.73 53.5C494.64 58.39 494.78 59.67 494 62L493 65L488.5 59.95L407.5 233.17C402.34 227.22 381.86 202.42 358.67 174.21C335.48 146 316.5 122.94 316.5 122.96C316.5 122.99 316.5 125.27 316.5 128.04C316.5 130.81 316.98 133.39 317.56 133.79C318.14 134.18 337.2 157.22 359.92 185C382.64 212.77 402.06 236.4 403.08 237.5C404.92 239.49 404.94 239.48 406.04 236.5L407.16 233.5C410.17 237.37 411.23 238.27 411.45 238C411.67 237.72 429.14 200.6 450.27 155.5C471.4 110.4 489.59 71.7 490.68 69.5L492.67 65.5C496.56 70.92 509.07 89.15 522.98 109.5C544.86 141.52 548.15 146.81 547.39 148.79C546.9 150.05 528.05 185.02 505.5 226.5C482.95 267.97 464.19 301.82 463.8 301.7C463.42 301.59 452.23 288.22 438.94 272C425.65 255.77 413.97 241.6 412.98 240.5C411.19 238.52 411.17 238.52 409.71 241.5L408.25 244.5C406.12 241.01 405.27 239.98 405 239.96C404.72 239.94 394 262.33 381.16 289.71L357.82 339.5C361.02 342.6 362.13 343.27 362.36 343C362.58 342.72 373.06 320.55 385.64 293.73C398.21 266.9 408.72 244.99 409 245.03C409.27 245.07 421.09 259.25 435.25 276.55C460.93 307.92 461 307.99 462.5 305.5L464 303L467.72 307.5C470.07 303.62 488.86 269.2 510.97 228.5C533.09 187.8 551.49 154.14 551.85 153.7C552.21 153.26 571.14 180.04 593.93 213.2C616.71 246.37 637.41 276.37 639.93 279.87L644.5 286.24L647.23 280.5C650.7 285.12 651.14 285.27 651.98 284C652.53 283.17 659.29 270.91 666.99 256.75C679.31 234.11 681.01 230.43 681.04 226.25C681.09 221.91 680.95 221.63 679.46 223C678.56 223.82 671 237.01 662.66 252.29C650.76 274.11 647.25 279.81 646.33 278.79C645.69 278.08 625.29 248.47 600.99 213C576.7 177.52 556.45 148.05 555.99 147.5C555.48 146.89 554.6 147.67 553.72 149.5L552.27 152.5C549.34 147.57 549.23 146.54 550.14 144.75C550.76 143.51 551.42 142.27 551.61 142C551.8 141.72 552.79 142.62 553.81 144L555.68 146.5L602.93 59.5C599.61 56.26 598.55 55.88 598.07 56.5C597.66 57.05 587.3 75.95 575.05 98.5C562.81 121.05 552.5 139.81 552.14 140.19C551.79 140.57 539.12 122.84 524 100.79C508.87 78.74 496.36 60.21 496.18 59.6C496.01 59 500.84 47.81 506.93 34.75C513.02 21.69 517.99 10.62 517.97 10.16C517.95 9.7 516.85 8.84 515.52 8.24C513.14 7.18 512.95 7.49 502.91 29.33Z" />
		<path id="Path 2" class="shp0" d="M517.61 11.79C517.4 12.18 512.42 22.85 506.55 35.5C500.67 48.15 496.01 59 496.18 59.6C496.36 60.21 508.87 78.74 524 100.79C539.12 122.84 551.79 140.57 552.14 140.19C552.5 139.81 562.73 121.27 574.87 99C587.02 76.72 596.97 57.94 596.98 57.25C596.99 56.56 595.54 55.31 593.75 54.47C591.96 53.63 589.15 52.06 587.5 50.99C585.85 49.92 582.92 48.16 581 47.07C579.07 45.98 576.26 44.62 574.75 44.04C573.24 43.47 572 42.55 572 42C572 41.45 570.76 40.55 569.25 40C567.74 39.45 565.15 38.09 563.5 36.99C561.85 35.9 559.15 34.31 557.5 33.47C555.85 32.62 553.15 31.05 551.5 29.97C549.85 28.88 547.15 27.31 545.5 26.47C543.85 25.62 541.15 24.05 539.5 22.97C537.85 21.88 535.15 20.29 533.5 19.44C531.85 18.58 529.56 17.34 528.41 16.69C527.27 16.04 525.69 14.97 524.91 14.33C524.14 13.68 522.26 12.69 520.75 12.11C519.24 11.54 517.82 11.4 517.61 11.79ZM458.5 23.04C456.85 24.08 454.15 25.62 452.5 26.47C450.85 27.31 448.15 28.9 446.5 29.99C444.85 31.09 442.26 32.45 440.75 33C439.24 33.55 438 34.45 438 35C438 35.55 436.76 36.47 435.25 37.04C433.74 37.61 431.15 38.81 429.5 39.69C427.85 40.58 426.27 41.59 426 41.92C425.72 42.26 424.37 43.1 423 43.78C421.62 44.46 419.15 45.9 417.5 46.98C415.85 48.06 413.15 49.64 411.5 50.5C409.85 51.37 407.15 52.8 405.5 53.69C403.85 54.58 402.27 55.59 402 55.92C401.72 56.26 400.37 57.12 399 57.82C397.62 58.52 395.15 59.82 393.5 60.7C391.85 61.59 390.27 62.59 390 62.92C389.72 63.26 388.37 64.12 387 64.82C385.62 65.52 383.15 66.82 381.5 67.7C379.85 68.59 378.27 69.59 378 69.92C377.72 70.26 376.37 71.12 375 71.82C373.62 72.52 371.15 73.82 369.5 74.7C367.85 75.59 366.27 76.59 366 76.92C365.72 77.26 364.37 78.1 363 78.78C361.62 79.46 359.15 80.9 357.5 81.98C355.85 83.06 353.15 84.62 351.5 85.47C349.85 86.31 347.15 87.88 345.5 88.97C343.85 90.05 341.15 91.62 339.5 92.47C337.85 93.31 335.15 94.88 333.5 95.97C331.85 97.05 329.15 98.62 327.5 99.47C325.85 100.31 323.15 101.82 321.5 102.83C318.53 104.64 318.5 104.75 318.22 114.58L317.94 124.5C380.9 201.22 401.05 225.68 403.34 228.34L407.5 233.17L488.5 59.95L493 65C494.78 59.67 494.64 58.39 493.36 56.25L491.73 53.5C489.61 57.76 488.89 59.02 488.75 59.04C488.61 59.06 482.83 50.51 475.9 40.04C468.97 29.57 462.9 21.03 462.4 21.07C461.91 21.11 460.15 22 458.5 23.04ZM578.97 103.39L555.68 146.5C552.79 142.62 551.8 141.72 551.61 142C551.42 142.27 550.76 143.51 550.14 144.75C549.23 146.54 549.34 147.57 550.64 149.75L552.27 152.5C554.6 147.67 555.48 146.89 555.99 147.5C556.45 148.05 576.7 177.52 600.99 213C625.29 248.47 645.69 278.08 646.33 278.79C647.25 279.8 650.71 274.2 662.39 252.79C670.58 237.78 677.88 224.82 678.62 224C679.71 222.77 679.92 211.72 679.73 163.58L679.5 104.66C674.85 101.84 672.37 100.46 671 99.77C669.62 99.09 667.94 97.96 667.25 97.26C666.56 96.57 665.32 96 664.5 96C663.67 96 662.44 95.4 661.75 94.68C661.06 93.95 659.15 92.62 657.5 91.72C655.85 90.82 653.26 89.61 651.75 89.04C650.24 88.47 649 87.55 649 87C649 86.45 647.76 85.55 646.25 85C644.74 84.45 642.15 83.09 640.5 81.99C638.85 80.9 636.15 79.31 634.5 78.47C632.85 77.62 630.15 76.05 628.5 74.97C626.85 73.88 624.15 72.31 622.5 71.47C620.85 70.62 618.15 69.06 616.5 67.98C614.85 66.9 612.37 65.48 611 64.82C609.62 64.16 607.82 63.09 607 62.46C606.17 61.82 604.77 61.07 603.88 60.79C602.61 60.38 597.22 69.61 578.97 103.39ZM490.5 69.79C489.53 71.83 471.44 110.4 450.3 155.5C429.15 200.6 411.67 237.72 411.45 238C411.23 238.27 410.17 237.37 409.1 236L407.16 233.5C404.94 239.48 404.92 239.49 403.08 237.5C402.06 236.4 383.56 213.9 361.96 187.5C340.36 161.1 321.63 138.26 320.34 136.75L318 134C318 311.79 318.1 317.03 319.75 317.49C320.71 317.76 322.85 318.88 324.5 319.99C326.15 321.1 328.85 322.69 330.5 323.53C332.15 324.38 334.85 325.95 336.5 327.03C338.15 328.12 340.85 329.69 342.5 330.53C344.15 331.38 346.85 332.95 348.5 334.03C350.15 335.12 352.85 336.64 354.5 337.43C356.15 338.21 357.77 338.55 358.11 338.18C358.44 337.8 369.02 315.55 381.61 288.71C394.2 261.88 404.72 239.94 405 239.96C405.27 239.98 406.12 241.01 406.88 242.25L408.25 244.5C411.17 238.52 411.19 238.52 412.98 240.5C413.97 241.6 425.65 255.77 438.94 272C452.23 288.22 463.42 301.59 463.8 301.7C464.19 301.82 482.95 267.97 505.5 226.5C528.05 185.02 546.9 150.05 547.38 148.79C548.14 146.81 544.58 141.14 520.88 106.61C505.82 84.68 493.22 66.58 492.88 66.41C492.54 66.23 491.47 67.75 490.5 69.79ZM549.32 158C547.66 161.02 529.31 194.77 508.53 233C487.76 271.22 470.08 303.62 469.24 305L467.72 307.5L464 303C461 307.99 460.93 307.92 435.25 276.55C421.09 259.25 409.27 245.07 409 245.03C408.72 244.99 398.31 266.68 385.86 293.23C373.41 319.78 363.4 342.06 363.61 342.75C363.83 343.44 365.12 344.22 366.5 344.5C367.87 344.77 369 345.45 369 346C369 346.55 370.24 347.46 371.75 348.02C373.26 348.58 375.85 349.82 377.5 350.77C379.15 351.72 380.72 352.77 381 353.1C381.27 353.42 382.85 354.41 384.5 355.3C386.15 356.18 388.62 357.48 390 358.18C391.37 358.88 392.72 359.74 393 360.08C393.27 360.41 394.85 361.43 396.5 362.33C398.15 363.22 400.74 364.53 402.26 365.23C403.78 365.93 405.01 366.84 405.01 367.25C405 367.66 406.57 368.45 408.5 369C410.42 369.55 412 370.45 412 371C412 371.55 413.24 372.47 414.75 373.04C416.26 373.61 418.74 374.74 420.25 375.54C421.76 376.34 423.16 376.89 423.35 376.75C423.54 376.61 431.91 361.42 441.95 343C451.98 324.57 460.37 309.27 460.59 309C460.81 308.72 461.92 309.4 463.06 310.5C464.84 312.23 465.25 312.29 466.05 311C466.55 310.17 467.14 309.05 467.36 308.5C467.62 307.83 468.08 307.83 468.75 308.5C469.31 309.05 485.39 328.62 504.51 352C523.62 375.37 539.86 395.17 540.6 396C541.79 397.33 542.14 397.33 543.72 395.94C544.7 395.09 546.62 393.84 548 393.18C549.37 392.52 551.85 391.1 553.5 390.02C555.15 388.94 557.85 387.38 559.5 386.53C561.15 385.69 563.85 384.12 565.5 383.03C567.15 381.95 569.85 380.38 571.5 379.53C573.15 378.69 575.85 377.12 577.5 376.03C579.15 374.95 581.85 373.38 583.5 372.53C585.15 371.69 587.85 370.12 589.5 369.03C591.15 367.95 593.96 366.37 595.75 365.53C597.54 364.69 599.22 363.55 599.5 363C599.77 362.45 600.71 362 601.57 362C602.44 362 603.79 361.32 604.57 360.5C605.36 359.67 605.78 358.89 605.5 358.75C605.23 358.61 612.7 344.32 622.1 327C631.51 309.67 640.34 293.47 641.74 291L644.29 286.5C647.83 291.1 648.29 291.26 649.06 290C649.56 289.17 649.98 288.16 649.98 287.75C649.99 287.34 650.45 287 651 287C651.55 287 657.06 294.42 663.25 303.48C673.18 318.04 674.68 319.79 676 318.51C676.82 317.71 678.06 317.04 678.75 317.03C679.73 317.01 680.01 307.95 680.03 275.25C680.04 252.29 679.86 233.72 679.62 234C679.38 234.27 673.04 245.75 665.53 259.5C658.02 273.25 651.64 284.72 651.37 285C651.09 285.27 650.05 284.37 649.05 283L647.23 280.5L644.5 286.24C637.41 276.37 617.3 247.17 595.25 215C573.19 182.82 554.51 155.6 553.74 154.5C552.4 152.6 552.18 152.78 549.32 158Z" />
		<path id="Path 3" class="shp1" d="M641.74 291C640.34 293.47 631.51 309.67 622.12 327C612.73 344.32 605.26 358.84 605.52 359.25C605.78 359.66 606.56 360.01 607.25 360.02C607.94 360.03 609.71 358.8 611.2 357.27C612.68 355.75 615.09 352.25 616.55 349.5C618.01 346.75 625.45 332.91 633.1 318.75C640.74 304.59 647.45 293 648 293C648.55 293 653.61 299.76 659.25 308.02C664.89 316.29 669.72 323.04 670 323.04C670.27 323.04 671.4 322.39 672.5 321.61C674.43 320.23 674.16 319.68 664.71 305.84C659.33 297.95 654.04 290.37 652.97 289C651.31 286.88 650.86 286.73 650.02 288C649.48 288.82 648.87 289.95 648.66 290.5C648.46 291.05 647.39 290.37 646.29 289L644.29 286.5L641.74 291Z" />
		<path id="Path 4" class="shp0" d="M631.1 322.5C622.24 338.72 615 352.45 615 353C615 353.55 616.46 353.25 618.25 352.33C620.04 351.41 621.72 350.35 622 349.98C622.27 349.61 623.85 348.58 625.5 347.69C627.15 346.81 629.74 345.61 631.25 345.04C632.76 344.47 634 343.55 634 343C634 342.45 635.24 341.54 636.75 340.97C638.26 340.4 640.62 339.29 642 338.51C643.37 337.72 645.17 336.59 646 336C646.82 335.41 648.62 334.28 650 333.49C651.37 332.71 653.74 331.6 655.25 331.03C656.76 330.46 658 329.55 658 329C658 328.45 659.46 327.54 661.25 326.98C663.04 326.42 665.52 325.18 666.77 324.23L669.03 322.5C653.51 299.64 648.59 293 648.1 293C647.6 293 639.95 306.27 631.1 322.5Z" />
		<path id="Path 5" class="shp1" d="M467.1 308.67C467.03 309.12 466.55 310.17 466.05 311C465.25 312.29 464.84 312.23 463.06 310.5C461.92 309.4 460.81 308.72 460.59 309C460.37 309.27 451.83 324.8 441.63 343.5C423.17 377.31 423.08 377.51 425.02 379.5C426.29 380.8 427.29 381.15 427.88 380.5C428.38 379.95 436.83 364.75 446.65 346.72C456.47 328.69 464.84 313.95 465.25 313.97C465.66 313.99 481.86 333.35 501.25 357C529.13 391.01 536.92 399.92 538.5 399.65C539.6 399.46 540.62 398.67 540.77 397.9C540.92 397.13 524.8 376.7 504.95 352.5C485.1 328.3 468.5 308.35 468.05 308.17C467.6 307.98 467.17 308.21 467.1 308.67Z" />
		<path id="Path 6" fill-rule="evenodd" class="shp0" d="M465.13 314C465.61 314 481.64 333.12 500.75 356.5C519.86 379.87 535.63 399.33 535.78 399.75C535.94 400.16 535.26 400.83 534.28 401.24C533.3 401.64 531.15 402.88 529.5 403.98C527.85 405.08 525.37 406.54 524 407.22C522.62 407.9 521.27 408.74 521 409.08C520.72 409.41 519.15 410.41 517.5 411.3C515.85 412.18 513.37 413.48 512 414.18C510.62 414.88 509.27 415.73 509 416.06C508.72 416.39 506.36 417.75 499 421.5L494.25 419.08C491.64 417.75 489.27 416.39 489 416.06C488.72 415.73 487.37 414.88 486 414.18C484.62 413.48 482.15 412.18 480.5 411.3C478.85 410.41 477.27 409.41 477 409.08C476.72 408.74 475.37 407.9 474 407.22C472.62 406.54 470.15 405.1 468.5 404.02C466.85 402.94 464.15 401.38 462.5 400.53C460.85 399.69 458.15 398.12 456.5 397.03C454.85 395.95 452.15 394.38 450.5 393.53C448.85 392.69 446.15 391.12 444.5 390.03C442.85 388.95 440.15 387.36 438.5 386.5C436.85 385.63 434.26 384.27 432.75 383.46C431.24 382.66 429.74 381.44 429.43 380.75C429.11 380.06 436.82 364.76 446.56 346.75C456.3 328.74 464.66 314 465.13 314ZM205.75 526C205.89 526 206 536.57 206 573L202.5 573C200.34 573 199.02 572.52 199.04 571.75C199.08 570.76 198.81 570.77 197.79 571.78C197.08 572.48 194.25 573.23 191.5 573.45C188.75 573.66 185.71 573.42 184.75 572.92C183.79 572.41 182.21 571.2 181.25 570.22C180.29 569.24 178.82 567.15 178 565.57C177.13 563.91 176.54 560.33 176.61 557.1C176.66 554.02 176.94 550.6 177.22 549.5C177.49 548.4 178.56 546.31 179.58 544.85C180.6 543.39 182.81 541.52 184.47 540.69C186.14 539.86 189.07 539.28 191 539.42C192.92 539.55 195.51 539.96 196.75 540.33C198.9 540.97 198.99 540.76 198.87 535.49C198.74 530.22 198.89 529.88 202.12 527.99C203.98 526.9 205.61 526.01 205.75 526ZM184.6 553.51C184.12 555.7 184.02 558.74 184.37 560.25C184.71 561.76 185.9 563.9 187 565C188.1 566.1 190.24 567 191.75 567.01C193.26 567.01 195.51 566.34 196.75 565.51C198.73 564.18 199.01 563.13 199.04 556.75C199.07 552.07 198.63 549.06 197.79 548.27C197.08 547.59 194.92 546.76 192.99 546.42C190.35 545.96 188.98 546.27 187.48 547.67C186.37 548.69 185.08 551.32 184.6 553.51ZM412 526.54C413.37 526.89 414.8 527.69 415.16 528.33C415.53 528.98 415.67 530.17 415.49 531C415.3 531.82 415.12 532.84 415.08 533.25C415.03 533.66 413.87 534.22 412.5 534.5C411.12 534.77 409.3 534.44 408.46 533.75C407.61 533.06 406.84 531.58 406.76 530.45C406.67 529.32 407.25 527.84 408.05 527.15C408.89 526.43 410.55 526.17 412 526.54ZM721 526.43C723.57 526.55 726.65 527.46 728.18 528.57C729.66 529.63 731.3 531.4 731.84 532.5C732.38 533.6 732.52 535 732.16 535.6C731.8 536.21 730.49 537.22 729.25 537.85C727.34 538.83 726.7 538.66 725.03 536.75C723.95 535.51 723.05 534.16 723.03 533.75C723.01 533.34 721.54 533.11 719.75 533.25C717.96 533.38 715.6 534.39 714.5 535.5C713.4 536.6 711.93 538.74 711.25 540.25C710.49 541.92 710.1 546.27 710.25 551.33C710.48 558.88 710.78 560.01 713.5 563.47C716.3 567.04 716.76 567.25 720.5 566.68C722.84 566.32 724.9 565.33 725.47 564.29C726 563.3 726.56 561.26 726.72 559.75C726.98 557.16 726.77 557 723 557C719.1 557 719 556.92 719 550L735 550L734.48 557.25C734.14 561.95 733.28 565.56 732.03 567.5C730.98 569.15 729.08 571.13 727.81 571.91C726.54 572.69 723.47 573.42 721 573.55C718.23 573.69 715.15 573.09 713 571.99C711.07 571 708.49 569.03 707.25 567.6C706.01 566.17 704.32 563.2 703.5 561C702.47 558.26 702.11 554.4 702.35 548.75C702.59 543.06 703.29 539.43 704.6 537.04C705.65 535.14 707.74 532.33 709.25 530.79C710.76 529.26 713.01 527.6 714.25 527.11C715.49 526.62 718.52 526.32 721 526.43ZM939 526.54C940.37 526.89 941.8 527.69 942.16 528.33C942.53 528.98 942.67 530.17 942.49 531C942.3 531.82 942.12 532.84 942.08 533.25C942.03 533.66 940.87 534.22 939.5 534.5C938.12 534.77 936.3 534.44 935.46 533.75C934.61 533.06 933.84 531.58 933.76 530.45C933.67 529.32 934.25 527.84 935.05 527.15C935.88 526.43 937.55 526.17 939 526.54ZM1.21 527L32 527L32 534L9 534L9 546L25 546L25 553L9 553L9 573L4.75 572.75C1.06 572.53 0.45 572.17 0.14 570C-0.05 568.62 0.11 558.39 0.5 547.25L1.21 527ZM352 527L383 527L383 534L360 534L360 546L376 546L376 553L360 553L360 573L352 573L352 527ZM69.89 539.4C72.43 539.54 75.06 539.95 75.75 540.32C76.54 540.75 77 543.23 77 553L73.5 553C70.17 553 70 552.83 70 549.5C70 547.37 69.51 546 68.75 545.99C68.06 545.98 66.01 546.32 64.19 546.74C61.66 547.32 60.41 548.45 58.87 551.57C57.58 554.17 56.88 557.5 57 566L67 566L67 573L43 573L43 569.5C43 566.17 43.17 566 50 566L50 547L46.5 547C43.17 547 43 546.83 43 540L50 540C55.56 540 57 540.31 57 541.5C57 542.32 57.11 543 57.25 543.01C57.39 543.01 59.25 542.15 61.39 541.09C63.9 539.85 66.93 539.25 69.89 539.4ZM105.41 539.42C108.21 539.56 111.49 540.31 112.69 541.08C113.9 541.86 115.66 543.62 116.62 545C117.62 546.45 118.49 549.9 119 559L96 559L97.25 561.99C97.94 563.64 99.62 565.47 101 566.06C102.37 566.64 104.85 566.91 106.5 566.66C108.15 566.4 110.17 565.94 111 565.63C111.82 565.31 113.4 565.71 114.5 566.5C115.6 567.3 116.23 568.52 115.9 569.22C115.57 569.93 113.77 571.26 111.9 572.18C109.76 573.24 106.64 573.77 103.5 573.61C100.6 573.46 97.29 572.54 95.63 571.43C94.05 570.37 92.06 567.92 91.22 566C90.37 564.07 89.57 560.02 89.44 557C89.27 553.04 89.81 550.27 91.35 547.1C92.72 544.3 94.74 542.06 96.91 540.94C99.14 539.79 102.09 539.26 105.41 539.42ZM97.25 550.5L96 553L112 553C109.89 548.74 108.54 547.16 107.64 546.75C106.74 546.34 105.21 546.03 104.25 546.07C103.29 546.1 101.6 546.56 100.5 547.07C99.4 547.58 97.94 549.13 97.25 550.5ZM149.41 539.42C152.21 539.56 155.49 540.31 156.69 541.08C157.9 541.86 159.66 543.62 160.62 545C161.62 546.45 162.49 549.9 163 559L140 559L141.25 561.99C141.94 563.64 143.62 565.47 145 566.06C146.37 566.64 148.85 566.91 150.5 566.66C152.15 566.4 154.17 565.94 155 565.63C155.82 565.31 157.4 565.71 158.5 566.5C159.6 567.3 160.23 568.52 159.9 569.22C159.57 569.93 157.77 571.26 155.9 572.18C153.76 573.24 150.64 573.77 147.5 573.61C144.6 573.46 141.29 572.54 139.63 571.43C138.05 570.37 136.06 567.92 135.22 566C134.37 564.07 133.57 560.02 133.44 557C133.27 553.04 133.81 550.27 135.35 547.1C136.72 544.3 138.74 542.06 140.91 540.94C143.14 539.79 146.09 539.26 149.41 539.42ZM141.25 550.5L140 553L156 553C153.89 548.74 152.54 547.16 151.64 546.75C150.74 546.34 149.21 546.03 148.25 546.07C147.29 546.1 145.6 546.56 144.5 547.07C143.4 547.58 141.94 549.13 141.25 550.5ZM236 539.29C238.93 539.31 241.81 540.14 244.25 541.66C246.31 542.95 248.77 545.24 249.71 546.75C250.76 548.44 251.48 551.81 251.58 555.5C251.69 559.98 251.16 562.64 249.46 566C247.94 569.01 246.08 571 243.84 572C242 572.82 238.47 573.55 236 573.61C232.85 573.69 230.37 573.02 227.75 571.36C225.69 570.06 223.23 567.76 222.28 566.25C221.08 564.33 220.56 561.39 220.56 556.5C220.56 551.61 221.08 548.67 222.28 546.75C223.23 545.24 225.69 542.93 227.75 541.63C230.3 540.01 232.93 539.26 236 539.29ZM229.57 550.08C228.71 551.68 228 554.57 228 556.5C228 558.42 228.61 561.24 229.37 562.75C230.12 564.26 231.8 565.83 233.12 566.24C234.43 566.64 236.31 566.98 237.3 566.99C238.28 566.99 240.2 565.87 241.55 564.5C243.53 562.48 244 561 243.98 556.75C243.96 553.33 243.35 550.72 242.23 549.27C241.28 548.04 239.15 546.84 237.5 546.6C235.85 546.36 233.74 546.38 232.82 546.66C231.9 546.93 230.43 548.47 229.57 550.08ZM274.71 539C275.97 539 277.9 539.9 279 541C280.91 542.91 281.09 542.92 282.92 541.25C283.97 540.29 286.11 539.4 287.67 539.29C289.33 539.16 291.53 539.93 293 541.15C295.44 543.17 295.51 543.59 296 573L289 573L289.18 560.75C289.28 554.01 289.05 547.94 288.68 547.25C288.31 546.56 287.1 546 286 546C284.9 546 283.71 546.56 283.35 547.25C283 547.94 282.77 554.01 283 573L276 573L276 561.5C276 555.17 275.77 549.55 275.5 549C275.22 548.45 275 547.55 275 547C275 546.45 273.87 546 272.5 546C270.58 546 269.86 546.64 269.4 548.75C269.07 550.26 268.85 556.34 269 573L262 573L262 540L265 540C266.65 540 268.17 540.56 268.38 541.25C268.65 542.15 269.27 542.01 270.59 540.75C271.6 539.79 273.46 539 274.71 539ZM459 539.57C461.47 539.77 464.13 540.52 464.91 541.22C465.68 541.93 467.14 544.3 468.14 546.5C469.55 549.6 469.96 553.04 470 573L463.5 573.01L463 561.61C462.58 552.04 462.18 549.88 460.5 548.06C459.06 546.5 457.53 545.97 455 546.15C453.07 546.29 450.71 547.22 449.75 548.2C448.79 549.19 448 550.22 448 550.5C448 550.77 448 555.95 448 573L440 573L440 540L443.5 540C445.42 540 447.11 540.47 447.25 541.05C447.41 541.73 448.73 541.59 451 540.64C452.98 539.82 456.46 539.35 459 539.57ZM500.54 539.39C503.48 539.45 506.72 540.23 508.29 541.25C509.78 542.21 511.39 544.01 511.86 545.25C512.33 546.49 512.78 553.24 513 573L509.5 573C507.55 573 505.85 572.45 505.66 571.75C505.41 570.8 504.88 570.87 503.5 572C502.49 572.82 499.61 573.56 497.08 573.63C494.37 573.7 491.48 573.1 490 572.14C488.62 571.25 486.94 569.96 486.25 569.26C485.56 568.57 484.83 566.31 484.61 564.25C484.4 562.19 484.85 559.26 485.61 557.75C486.38 556.24 488.01 554.5 489.25 553.88C490.49 553.26 493.3 552.53 495.5 552.25C497.7 551.97 500.96 552.25 502.75 552.87C505.71 553.9 506 553.82 506 552C506 550.9 504.99 549.04 503.75 547.86C501.92 546.11 500.67 545.81 497 546.23C494.52 546.51 491.49 547.25 490.25 547.87C488.34 548.83 488 548.73 488.02 547.25C488.03 546.29 487.46 544.97 486.77 544.33C485.76 543.41 486.02 542.91 488 541.92C489.37 541.24 491.62 540.36 493 539.98C494.37 539.59 497.77 539.33 500.54 539.39ZM491.66 562.25C491.29 563.22 491.56 564.39 492.25 564.88C492.94 565.37 494.96 566.05 496.75 566.38C498.78 566.77 501.12 566.44 503 565.5C504.83 564.58 506 563.22 506 562C506 560.9 505.44 559.71 504.75 559.36C504.06 559 501.4 558.57 498.83 558.38C495.95 558.18 493.81 558.52 493.24 559.27C492.73 559.95 492.02 561.29 491.66 562.25ZM547 539.57C549.47 539.77 552.13 540.52 552.91 541.22C553.68 541.93 555.14 544.3 556.14 546.5C557.55 549.6 557.96 553.04 558 573L551.5 573.01L551 561.61C550.58 552.04 550.18 549.88 548.5 548.06C547.06 546.5 545.53 545.97 543 546.15C541.07 546.29 538.71 547.22 537.75 548.2C536.79 549.19 536 550.22 536 550.5C536 550.77 536 555.95 536 573L528 573L528 540L531.5 540C533.42 540 535.11 540.47 535.25 541.05C535.41 541.73 536.73 541.59 539 540.64C540.98 539.82 544.46 539.35 547 539.57ZM588 539.46C590.47 539.6 593.4 540.1 594.5 540.57C595.6 541.04 597.53 542.56 598.78 543.96C600.04 545.36 601.06 546.95 601.05 547.5C601.05 548.05 599.46 549.06 597.52 549.75C594.5 550.82 594 550.79 594 549.5C594 548.67 592.76 547.53 591.25 546.96C589.74 546.38 587.6 546.04 586.5 546.21C585.4 546.37 583.6 547.46 582.5 548.63C581.07 550.14 580.45 552.3 580.33 556.13C580.2 560.36 580.62 562.03 582.33 564C583.52 565.37 585.4 566.64 586.5 566.81C587.6 566.98 589.76 566.53 591.29 565.81C592.82 565.09 594.06 563.94 594.04 563.25C594.02 562.56 594.11 561.99 594.25 561.98C594.39 561.97 595.96 562.42 597.75 562.98C600.5 563.85 600.9 564.34 600.32 566.25C599.94 567.49 598.92 569.17 598.05 570C597.18 570.82 595.35 572.01 593.99 572.62C592.62 573.24 589.47 573.67 587 573.59C584.39 573.5 581.3 572.61 579.64 571.47C578.06 570.38 575.85 567.92 574.71 566C573.34 563.67 572.67 560.82 572.7 557.5C572.73 554.75 572.96 551.82 573.22 551C573.48 550.17 574.21 548.26 574.85 546.75C575.48 545.24 577.69 542.92 579.75 541.6C582.55 539.81 584.64 539.26 588 539.46ZM632.41 539.42C635.21 539.56 638.49 540.31 639.69 541.08C640.9 541.86 642.66 543.62 643.62 545C644.62 546.45 645.49 549.9 646 559L623 559L624.25 561.99C624.94 563.64 626.62 565.47 628 566.06C629.37 566.64 631.85 566.91 633.5 566.66C635.15 566.4 637.17 565.94 638 565.63C638.82 565.31 640.4 565.71 641.5 566.5C642.6 567.3 643.23 568.52 642.9 569.22C642.57 569.93 640.77 571.26 638.9 572.18C636.76 573.24 633.64 573.77 630.5 573.61C627.6 573.46 624.29 572.54 622.63 571.43C621.05 570.37 619.06 567.92 618.22 566C617.37 564.07 616.57 560.02 616.44 557C616.27 553.04 616.81 550.27 618.35 547.1C619.72 544.3 621.74 542.06 623.91 540.94C626.14 539.79 629.09 539.26 632.41 539.42ZM624.25 550.5L623 553L639 553C636.89 548.74 635.54 547.16 634.64 546.75C633.74 546.34 632.21 546.03 631.25 546.07C630.29 546.1 628.6 546.56 627.5 547.07C626.4 547.58 624.94 549.13 624.25 550.5ZM763.41 539.42C766.21 539.56 769.49 540.31 770.69 541.08C771.9 541.86 773.66 543.62 774.62 545C775.62 546.45 776.49 549.9 777 559L754 559L755.25 561.99C755.94 563.64 757.62 565.47 759 566.06C760.37 566.64 762.85 566.91 764.5 566.66C766.15 566.4 768.17 565.94 769 565.63C769.82 565.31 771.4 565.71 772.5 566.5C773.6 567.3 774.23 568.52 773.9 569.22C773.57 569.93 771.77 571.26 769.9 572.18C767.76 573.24 764.64 573.77 761.5 573.61C758.6 573.46 755.29 572.54 753.63 571.43C752.05 570.37 750.06 567.92 749.22 566C748.37 564.07 747.57 560.02 747.44 557C747.27 553.04 747.81 550.27 749.35 547.1C750.72 544.3 752.74 542.06 754.91 540.94C757.14 539.79 760.09 539.26 763.41 539.42ZM755.25 550.5L754 553L770 553C767.89 548.74 766.54 547.16 765.64 546.75C764.74 546.34 763.21 546.03 762.25 546.07C761.29 546.1 759.6 546.56 758.5 547.07C757.4 547.58 755.94 549.13 755.25 550.5ZM806 539.29C808.93 539.31 811.81 540.14 814.25 541.66C816.31 542.95 818.77 545.24 819.71 546.75C820.75 548.41 821.5 551.87 821.61 555.5C821.74 559.51 821.2 562.83 819.99 565.5C818.8 568.11 816.84 570.23 814.33 571.6C812.05 572.85 808.69 573.7 806 573.7C803.01 573.7 800.24 572.91 797.75 571.35C795.69 570.06 793.23 567.76 792.28 566.25C791.08 564.33 790.56 561.39 790.56 556.5C790.56 551.61 791.08 548.67 792.28 546.75C793.23 545.24 795.69 542.93 797.75 541.63C800.3 540.01 802.93 539.26 806 539.29ZM799.57 550.08C798.71 551.68 798 554.57 798 556.5C798 558.42 798.61 561.24 799.37 562.75C800.12 564.26 801.8 565.83 803.12 566.24C804.43 566.64 806.31 566.98 807.3 566.99C808.28 566.99 810.2 565.87 811.55 564.5C813.53 562.48 814 561 813.98 556.75C813.96 553.33 813.35 550.72 812.23 549.27C811.28 548.04 809.15 546.84 807.5 546.6C805.85 546.36 803.74 546.38 802.82 546.66C801.9 546.93 800.43 548.47 799.57 550.08ZM859.89 539.4C862.43 539.54 865.06 539.95 865.75 540.32C866.54 540.75 867 543.23 867 553L863.5 553C860.17 553 860 552.83 860 549.5C860 547.37 859.51 546 858.75 545.99C858.06 545.98 856.01 546.32 854.19 546.74C851.66 547.32 850.41 548.45 848.87 551.57C847.58 554.17 846.88 557.5 847 566L857 566L857 573L833 573L833 569.5C833 566.17 833.17 566 840 566L840 547L836.5 547C833.17 547 833 546.83 833 540L840 540C845.56 540 847 540.31 847 541.5C847 542.32 847.11 543 847.25 543.01C847.39 543.01 849.25 542.15 851.39 541.09C853.9 539.85 856.93 539.25 859.89 539.4ZM893 539.44C894.92 539.55 897.51 540.17 898.75 540.82C900.13 541.54 901 541.61 901 541C901 540.45 902.35 540 907 540L907.27 556.75C907.43 566.29 907.11 574.87 906.52 576.68C905.96 578.43 904.49 581.01 903.25 582.43C902.01 583.84 900.44 585.05 899.75 585.11C899.06 585.17 897.04 585.4 895.25 585.61C892.72 585.91 891.67 585.5 890.54 583.75C889.74 582.51 889.29 581.16 889.54 580.75C889.79 580.34 891.69 579.77 893.75 579.5C896.72 579.1 897.92 578.27 899.5 575.54C900.6 573.64 901.16 571.84 900.75 571.54C900.34 571.25 898.99 571.63 897.75 572.41C896.51 573.18 893.66 573.74 891.42 573.66C889.18 573.57 886.53 572.82 885.54 572C884.56 571.17 882.8 569.15 881.64 567.5C880.04 565.23 879.49 562.8 879.36 557.5C879.26 553.65 879.62 549.37 880.16 548C880.69 546.62 882.05 544.42 883.17 543.1C884.29 541.78 886.17 540.38 887.35 539.98C888.53 539.58 891.07 539.34 893 539.44ZM887.16 552.15C886.47 554.44 886.3 557.49 886.75 559.66C887.18 561.76 888.56 564.11 890 565.19C891.37 566.22 893.17 567.06 894 567.04C894.82 567.03 896.51 566.34 897.75 565.51C899.73 564.18 900 563.15 900 557C900 551.33 899.62 549.62 898 548C896.9 546.9 895.21 546.03 894.25 546.07C893.29 546.1 891.56 546.62 890.41 547.22C889.26 547.82 887.8 550.04 887.16 552.15ZM983 539.3C985.47 539.29 988.62 540.01 990 540.89C991.37 541.78 993.23 543.4 994.13 544.5C995.44 546.11 995.78 549.11 996 573L992.5 573C990.55 573 988.85 572.45 988.66 571.75C988.41 570.8 987.88 570.87 986.5 572C985.49 572.82 982.61 573.56 980.08 573.63C977.37 573.7 974.48 573.1 973 572.14C971.62 571.25 969.94 569.96 969.25 569.26C968.56 568.57 967.83 566.31 967.61 564.25C967.4 562.19 967.85 559.26 968.61 557.75C969.38 556.24 971.46 554.37 973.25 553.59C975.04 552.82 978.52 552.3 981 552.43C983.47 552.57 986.17 552.87 987 553.09C988.13 553.4 988.44 552.76 988.24 550.5C988.1 548.85 987.72 547.27 987.4 547C987.09 546.72 984.73 546.43 982.16 546.35C979.6 546.26 976.04 546.82 974.25 547.6C971.29 548.88 971 548.85 971.02 547.25C971.03 546.29 970.46 544.97 969.77 544.33C968.76 543.41 969.02 542.91 971 541.92C972.37 541.24 974.62 540.37 976 540C977.37 539.63 980.52 539.31 983 539.3ZM974.83 562.55C974.92 563.9 975.9 565.45 977 566C978.1 566.55 979.9 567 981 567C982.1 567 984.35 566.32 986 565.5C987.83 564.58 989 563.22 989 562C989 560.9 988.1 559.55 987 559C985.9 558.45 983.54 558.01 981.75 558.03C979.96 558.05 977.64 558.52 976.58 559.08C975.39 559.71 974.72 561.03 974.83 562.55ZM398 540L415 540L415 566L419.5 566C423.98 566 424 566.02 424 573L398 573L398 569.5C398 566.03 398.04 566 407.5 565.5L407.5 547.5L402.75 547.25C398.04 547 398 546.97 398 543.5L398 540Z" />
		<path id="Path 7" class="shp2" d="M907.4 555C907.4 563.52 907.56 566.9 907.74 562.5C907.93 558.1 907.93 551.12 907.74 547C907.56 542.87 907.4 546.47 907.4 555Z" />
		<path id="Path 8" class="shp0" d="M925 543.5C925 546.97 925.04 547 929.75 547.25L934.5 547.5L934.5 565.5C925.04 566 925 566.03 925 569.5L925 573L951 573C951 566.02 950.98 566 946.5 566L942 566L942 540L925 540L925 543.5Z" />
		<path id="Path 9" class="shp1" d="M261.34 551C261.34 555.12 261.51 556.92 261.73 555C261.94 553.07 261.94 549.7 261.73 547.5C261.51 545.3 261.34 546.87 261.34 551Z" />
		<path id="Path 10" fill-rule="evenodd" class="shp2" d="M900.27 549.8C900.69 550.18 900.91 553.65 900.48 564.5L899.99 556.8C899.72 552.56 899.85 549.41 900.27 549.8ZM462.73 558C462.94 560.47 462.94 564.97 462.74 568C462.54 571.02 462.37 569 462.37 563.5C462.36 558 462.53 555.52 462.73 558ZM550.73 558C550.94 560.47 550.94 564.97 550.74 568C550.54 571.02 550.37 569 550.37 563.5C550.36 558 550.53 555.52 550.73 558ZM316.49 658.01L316.76 667.25C316.91 672.34 317.25 677.06 317.52 677.75C317.87 678.67 318.85 678.48 321.25 677C323.22 675.79 326.27 675 329 675C331.52 675 335.04 675.82 337 676.88C338.98 677.95 341.37 680.45 342.5 682.63C344.22 685.96 344.53 688.77 345 719L339 719L338.75 703.21C338.54 690.16 338.2 686.95 336.75 684.71C335.67 683.04 333.56 681.64 331.25 681.06C328.67 680.41 326.41 680.49 324 681.31C321.61 682.12 319.94 683.61 318.75 686C317.32 688.86 317 692.21 317 719L311 719L310.64 661.06L313.57 659.53L316.49 658.01ZM487.5 658.18L487.76 673.84C487.9 682.45 488.24 690.06 488.51 690.75C488.8 691.49 492.04 688.76 496.5 684C503.09 676.98 504.42 676 510.95 676L500.5 687.12L517 719L513.5 719C510.01 719 509.99 718.97 496.5 692.03L487.97 700.5L488 719L482 719L481.64 661.06L484.57 659.62L487.5 658.18ZM386.21 659.18C387.36 659.36 388.79 660.29 389.4 661.25C390.2 662.52 390.2 663.48 389.4 664.75C388.79 665.71 387.44 666.64 386.4 666.82C385.35 667 383.82 666.41 383 665.52C381.73 664.15 381.7 663.51 382.81 661.38C383.69 659.68 384.8 658.97 386.21 659.18ZM671.21 659.18C672.36 659.36 673.79 660.29 674.4 661.25C675.2 662.52 675.2 663.48 674.4 664.75C673.79 665.71 672.44 666.64 671.4 666.82C670.35 667 668.82 666.41 668 665.52C666.73 664.15 666.7 663.51 667.81 661.38C668.69 659.68 669.8 658.97 671.21 659.18ZM251 660L291 660L291 662.5C291 664.97 290.9 665 274 665L274 719L268 719L268 665L259.5 665C251.1 665 251 664.97 251 662.5L251 660ZM596 660L606.75 660C614.99 660 618.31 660.41 620.98 661.75C622.89 662.71 625.49 665.07 626.76 667C628.34 669.41 629.04 671.91 628.99 675C628.96 677.47 628.38 680.51 627.71 681.75C627.05 682.98 625.15 684.85 620.5 687.82L623.75 689.41C625.54 690.28 627.9 692.46 629 694.25C630.37 696.48 630.98 699.22 630.97 703C630.95 706.95 630.31 709.47 628.72 711.94C627.49 713.84 624.71 716.18 622.5 717.17C619.44 718.54 615.87 718.96 596 719L596 660ZM601.98 686.5C613.65 685.27 617.48 684.25 619 683.15C620.37 682.14 622.12 680.01 622.87 678.41C623.81 676.41 623.97 674.59 623.37 672.61C622.89 671.02 621.37 668.87 620 667.82C618.29 666.53 615.09 665.73 609.91 665.32L602.31 664.71L601.98 686.5ZM601.99 714.5C615.56 713.33 620.4 712.4 621.5 711.67C622.6 710.94 624.1 709.03 624.84 707.42C625.62 705.73 625.95 703.02 625.62 701C625.31 699.07 624.03 696.5 622.78 695.27C621.52 694.05 618.92 692.59 617 692.02C615.07 691.46 610.91 691 607.75 691L602 691L601.99 714.5ZM442.92 675C445.51 674.99 449.02 675.81 451 676.88C452.98 677.95 455.37 680.45 456.5 682.63C458.22 685.96 458.53 688.77 459 719L453 719L452.75 703.21C452.54 690.16 452.2 686.95 450.75 684.71C449.67 683.04 447.56 681.64 445.25 681.06C442.67 680.41 440.41 680.49 438 681.31C435.61 682.12 433.94 683.61 432.75 686C431.32 688.86 431 692.21 431 719L425 719L425 676L428 676C430.35 676 430.98 676.43 430.92 677.97C430.84 679.83 431.04 679.81 434.59 677.47C437.2 675.75 439.73 675 442.92 675ZM726 675.07C728.83 675.03 731.7 675.75 733.75 677C736.52 678.7 737.07 678.78 737.5 677.5C737.8 676.61 739.22 676 744 676L743.75 700.75C743.51 724.15 743.38 725.69 741.33 729C740.14 730.92 737.44 733.5 735.33 734.72C733.06 736.03 729.77 736.95 727.25 736.97C723.98 736.99 722.77 736.54 722 735C721.08 733.16 721.42 732.95 726.25 732.36C730 731.9 732.25 730.97 734.13 729.11C735.94 727.31 736.97 724.95 737.45 721.5C737.83 718.75 738 716.4 737.82 716.27C737.64 716.14 735.7 716.94 733.5 718.03C731.3 719.12 727.81 720.01 725.75 720.01C723.69 720 720.76 719.52 719.25 718.94C717.74 718.35 715.02 716.44 713.21 714.69C711.23 712.77 709.33 709.5 708.45 706.5C707.64 703.75 706.98 699.7 706.98 697.5C706.98 695.3 707.64 691.25 708.45 688.5C709.33 685.5 711.23 682.22 713.21 680.3C715.02 678.55 717.62 676.66 719 676.12C720.37 675.57 723.52 675.1 726 675.07ZM716.83 685C715.8 686.37 714.62 689.75 714.2 692.5C713.79 695.25 713.68 699.37 713.97 701.66C714.26 703.94 715.43 707.09 716.56 708.66C717.7 710.22 720.29 712.29 722.31 713.25C725.14 714.59 726.75 714.78 729.25 714.06C731.04 713.55 733.74 711.75 735.25 710.06C737.84 707.18 738 706.45 738 697.5C738 692.27 737.55 687.1 737 686C736.45 684.9 734.09 683.11 731.75 682.02C729.41 680.93 727.05 680.06 726.5 680.08C725.95 680.1 723.97 680.65 722.09 681.31C720.22 681.96 717.85 683.62 716.83 685ZM389.02 676L389.5 713.5L395.25 713.75C400.65 713.98 401 714.15 401 719L371 719L371 716.5C371 714.11 371.27 714 383 714L383 681L377 681C371.27 681 371 680.89 371 678.5C371 676.02 371.07 676 389.02 676ZM674.02 676L674.5 713.5L680.25 713.75C685.65 713.98 686 714.15 686 719L656 719L656 716.5C656 714.11 656.27 714 668 714L668 681L662 681C656.27 681 656 680.89 656 678.5C656 676.02 656.07 676 674.02 676Z" />
	</g>
</svg>