<svg version="1.2" baseProfile="tiny-ps" xmlns="http://www.w3.org/2000/svg" viewBox="0 0 363 420" width="363" height="420">
	<title>Background</title>
	<style>
		tspan { white-space:pre }
		.shp0 { fill: #303841 } 
		.shp1 { fill: #f3f3f3 } 
	</style>
	<g id="Background">
		<path id="Path 0" class="shp0" d="M165.52 8.8C157.28 13.58 150.65 17.83 150.77 18.24C150.9 18.66 156.29 26.67 162.75 36.04C169.21 45.42 174.77 52.73 175.1 52.29C175.44 51.86 180.28 41.6 185.86 29.5C191.45 17.4 195.9 7.45 195.76 7.4C195.62 7.34 192.91 5.65 189.75 3.65C186.59 1.64 183.21 0.03 182.25 0.06C181.29 0.09 173.76 4.02 165.52 8.8Z" />
		<path id="Path 1" class="shp1" d="M185.99 29.25C180.34 41.49 175.44 51.86 175.11 52.3C174.77 52.74 169.1 45.22 162.5 35.59C155.9 25.95 150.05 18.05 149.5 18.02C148.95 17.99 147.7 18.54 146.71 19.23C145.08 20.39 145.98 22.04 157.57 39C164.53 49.17 170.58 57.95 171.03 58.5C171.52 59.1 172.42 58.3 173.28 56.5L174.73 53.5C177.64 58.39 177.78 59.67 177 62L176 65L171.5 59.95L90.5 233.17C85.34 227.22 65.76 203.48 43.67 176.57C21.58 149.66 2.95 126.94 2.28 126.07C1.27 124.77 1.06 125.32 1.03 129.25L1 134C65.5 212.66 85.06 236.4 86.08 237.5C87.92 239.49 87.94 239.48 89.04 236.5L90.16 233.5C93.17 237.37 94.23 238.27 94.45 238C94.67 237.72 112.14 200.6 133.27 155.5C154.4 110.4 172.59 71.7 173.68 69.5L175.67 65.5C179.56 70.92 192.07 89.15 205.98 109.5C227.86 141.52 231.15 146.81 230.39 148.79C229.9 150.05 211.05 185.02 188.5 226.5C165.95 267.97 147.19 301.82 146.8 301.7C146.42 301.59 135.23 288.22 121.94 272C108.65 255.77 96.97 241.6 95.98 240.5C94.19 238.52 94.17 238.52 92.71 241.5L91.25 244.5C89.12 241.01 88.27 239.98 88 239.96C87.72 239.94 76.98 262.33 64.12 289.71L40.75 339.5C45.45 343.1 45.52 343.09 46.6 340.82C47.2 339.54 57.55 317.45 69.6 291.73C81.64 266 91.72 244.99 92 245.03C92.27 245.07 104.09 259.25 118.25 276.55C143.93 307.92 144 307.99 145.5 305.5L147 303L150.72 307.5C153.07 303.62 171.86 269.2 193.97 228.5C216.09 187.8 234.49 154.14 234.85 153.7C235.21 153.26 254.14 180.04 276.93 213.2C299.71 246.37 320.41 276.37 322.93 279.87L327.5 286.24L330.23 280.5C333.05 284.37 334.09 285.27 334.37 285C334.64 284.72 341.2 272.91 348.94 258.75C361.71 235.36 363 232.54 363 228C363 225 362.6 223.2 362 223.5C361.45 223.77 354.14 236.62 345.75 252.04C333.78 274.05 330.25 279.81 329.33 278.79C328.69 278.08 308.29 248.47 283.99 213C259.7 177.52 239.45 148.05 238.99 147.5C238.48 146.89 237.6 147.67 236.72 149.5L235.27 152.5C232.34 147.57 232.23 146.54 233.14 144.75C233.76 143.51 234.42 142.27 234.61 142C234.8 141.72 235.79 142.62 236.81 144L238.68 146.5C283.96 63.24 285.85 59.39 284.25 58.23C283.29 57.54 282.05 56.99 281.5 57.02C280.95 57.04 270.6 75.33 258.5 97.65C246.4 119.97 236.05 138.84 235.5 139.59C234.74 140.62 227.77 131.14 207 100.83C191.87 78.76 179.36 60.21 179.18 59.6C179.01 59 183.84 47.81 189.93 34.75C196.02 21.69 200.98 10.66 200.96 10.25C200.94 9.84 200.15 8.95 199.21 8.28C198.27 7.61 197.22 7.05 196.89 7.03C196.55 7.01 191.65 17.01 185.99 29.25Z" />
		<path id="Path 2" class="shp0" d="M200.66 11.75C200.42 12.16 195.42 22.85 189.55 35.5C183.67 48.15 179.01 59 179.18 59.6C179.36 60.21 191.87 78.74 207 100.79C222.12 122.84 234.79 140.57 235.14 140.19C235.5 139.81 245.73 121.27 257.87 99C270.02 76.72 279.97 58.05 279.98 57.5C279.99 56.95 262.45 46.26 241 33.75C219.55 21.24 201.8 11 201.55 11C201.3 11 200.9 11.34 200.66 11.75ZM73.44 63.08L2.38 105.03L0.94 124.5C63.9 201.22 84.05 225.68 86.34 228.34L90.5 233.17L171.5 59.95L176 65C177.78 59.67 177.64 58.39 176.36 56.25L174.73 53.5C172.61 57.76 171.89 59.02 171.75 59.04C171.61 59.06 165.83 50.51 158.9 40.04C151.97 29.57 145.9 21.03 145.4 21.06C144.91 21.1 112.52 40.01 73.44 63.08ZM262.09 103.28L238.68 146.5C235.79 142.62 234.8 141.72 234.61 142C234.42 142.27 233.76 143.51 233.14 144.75C232.23 146.54 232.34 147.57 233.64 149.75L235.27 152.5C237.6 147.67 238.48 146.89 238.99 147.5C239.45 148.05 259.7 177.52 283.99 213C308.29 248.47 328.69 278.08 329.33 278.79C330.25 279.8 333.71 274.2 345.39 252.79C353.58 237.78 360.88 224.82 361.62 224C362.71 222.77 362.92 211.73 362.73 163.67L362.5 104.84C304.37 70.72 287.05 60.64 286.5 60.44C285.95 60.23 274.97 79.51 262.09 103.28ZM173.5 69.79C172.53 71.83 154.44 110.4 133.3 155.5C112.15 200.6 94.67 237.72 94.45 238C94.23 238.27 93.17 237.37 92.1 236L90.16 233.5C87.94 239.48 87.92 239.49 86.08 237.5C85.06 236.4 66.56 213.9 44.96 187.5C23.36 161.1 4.63 138.26 3.34 136.75L1 134L1.5 316.22C31.72 333.93 40.77 338.72 41.11 338.29C41.44 337.85 52.02 315.55 64.61 288.71C77.2 261.88 87.72 239.94 88 239.96C88.27 239.98 89.12 241.01 89.88 242.25L91.25 244.5C94.17 238.52 94.19 238.52 95.98 240.5C96.97 241.6 108.65 255.77 121.94 272C135.23 288.22 146.42 301.59 146.8 301.7C147.19 301.82 165.95 267.97 188.5 226.5C211.05 185.02 229.9 150.05 230.38 148.79C231.14 146.81 227.58 141.14 203.88 106.61C188.82 84.68 176.22 66.58 175.88 66.41C175.54 66.23 174.47 67.75 173.5 69.79ZM232.32 158C230.66 161.02 212.31 194.77 191.53 233C170.76 271.22 153.08 303.62 152.24 305L150.72 307.5L147 303C144 307.99 143.93 307.92 118.25 276.55C104.09 259.25 92.27 245.07 92 245.03C91.72 244.99 81.26 266.79 68.75 293.48C56.24 320.16 46.11 342.16 46.25 342.36C46.39 342.56 59.66 350.44 75.75 359.86C91.84 369.29 105.34 376.99 105.75 376.98C106.16 376.97 114.82 361.66 125 342.97C135.17 324.28 143.72 308.97 144 308.95C144.27 308.93 145.17 309.63 146 310.5C146.82 311.37 147.84 312.07 148.25 312.04C148.66 312.02 149.22 311.1 149.5 310C149.77 308.9 150.42 308.11 150.93 308.25C151.44 308.39 167.93 328.07 187.56 352C209.22 378.4 223.89 395.46 224.87 395.41C225.77 395.35 240.11 387.48 256.74 377.91C286.43 360.81 287.02 360.41 289.62 355.5C291.08 352.75 299.01 338.12 307.24 323C315.47 307.87 323.35 293.47 324.75 291L327.29 286.5C330.83 291.1 331.29 291.26 332.06 290C332.56 289.17 332.98 288.16 332.98 287.75C332.99 287.34 333.45 287 334 287C334.55 287 340.06 294.38 346.25 303.39L357.5 319.78L362.99 316.5C363.04 252.17 362.86 233.72 362.62 234C362.38 234.27 356.04 245.75 348.53 259.5C341.02 273.25 334.64 284.72 334.37 285C334.09 285.27 333.05 284.37 332.05 283L330.23 280.5L327.5 286.24C320.41 276.37 300.3 247.17 278.25 215C256.19 182.82 237.51 155.6 236.74 154.5C235.4 152.6 235.18 152.78 232.32 158Z" />
		<path id="Path 3" class="shp1" d="M324.74 291C323.34 293.47 314.6 309.45 305.31 326.5C296.02 343.55 288.1 358.29 287.71 359.25C287.09 360.78 287.47 360.73 290.75 358.84C292.81 357.64 295.3 355.96 296.28 355.09C297.26 354.21 298.05 353.16 298.03 352.75C298.01 352.34 305.31 338.71 314.25 322.46C323.19 306.21 330.84 292.93 331.25 292.96C331.66 292.98 336.61 299.76 342.25 308.02C347.89 316.29 352.72 323.04 353 323.04C353.27 323.04 354.4 322.39 355.5 321.61C357.43 320.23 357.16 319.68 347.71 305.84C342.33 297.95 337.04 290.37 335.97 289C334.31 286.88 333.86 286.73 333.02 288C332.48 288.82 331.87 289.95 331.66 290.5C331.46 291.05 330.39 290.37 329.29 289L327.29 286.5L324.74 291Z" />
		<path id="Path 4" class="shp0" d="M314.06 322.75C305.18 339.11 298.05 352.8 298.21 353.16C298.37 353.52 310.42 346.88 325 338.4C339.57 329.93 351.39 322.54 351.25 322C351.11 321.45 346.72 314.7 341.5 307C336.27 299.3 331.59 293 331.1 293C330.6 293 322.93 306.39 314.06 322.75Z" />
		<path id="Path 5" class="shp1" d="M150.1 308.67C150.03 309.12 149.55 310.17 149.05 311C148.25 312.29 147.84 312.23 146.06 310.5C144.92 309.4 143.81 308.72 143.59 309C143.37 309.27 135.08 324.35 125.17 342.5C115.25 360.65 106.87 376.17 106.53 377C106.13 377.98 106.8 378.93 108.46 379.75C110.98 380.99 111.06 380.9 117.35 369.25C120.85 362.79 129.06 347.7 135.6 335.72C142.15 323.75 147.84 313.96 148.25 313.97C148.66 313.99 164.14 332.56 182.65 355.25C201.16 377.94 217.02 397.31 217.9 398.3C219.44 400.03 219.58 400.03 221.78 398.3L224.05 396.5C168.11 328.3 151.5 308.35 151.05 308.17C150.6 307.98 150.17 308.21 150.1 308.67Z" />
		<path id="Path 6" class="shp0" d="M131.97 342.25C123.56 357.79 115.42 372.75 113.88 375.5L111.09 380.5C145.51 400.59 160.67 409.48 167 413.23C174.94 417.93 179.5 420.03 181.75 420.02C183.54 420.01 185.17 419.66 185.37 419.25C185.57 418.84 193.2 414.22 202.31 409C216.55 400.84 218.71 399.29 217.61 398C216.91 397.17 201.18 377.94 182.67 355.25C164.15 332.56 148.61 314 148.13 314C147.65 314 140.38 326.71 131.97 342.25Z" />
	</g>
</svg>