<svg xmlns="http://www.w3.org/2000/svg" version="1.1" xmlns:xlink="http://www.w3.org/1999/xlink" xmlns:svgjs="http://svgjs.com/svgjs" width="375" height="4060" preserveAspectRatio="none" viewBox="0 0 375 4060"><g mask="url(&quot;#SvgjsMask1465&quot;)" fill="none"><rect width="375" height="4060" x="0" y="0" fill="rgba(255, 255, 255, 1)"></rect><path d="M5.78 368.56L34.36 385.06L34.36 418.06L5.78 434.56L-22.8 418.06L-22.8 385.06zM34.36 715.06L62.94 731.56L62.94 764.56L34.36 781.06L5.78 764.56L5.78 731.56zM34.36 1903.06L62.94 1919.56L62.94 1952.56L34.36 1969.06L5.78 1952.56L5.78 1919.56zM34.36 2794.06L62.94 2810.56L62.94 2843.56L34.36 2860.06L5.78 2843.56L5.78 2810.56zM5.78 2843.56L34.36 2860.06L34.36 2893.06L5.78 2909.56L-22.8 2893.06L-22.8 2860.06zM34.36 3289.06L62.94 3305.56L62.94 3338.56L34.36 3355.06L5.78 3338.56L5.78 3305.56zM34.36 3586.06L62.94 3602.56L62.94 3635.56L34.36 3652.06L5.78 3635.56L5.78 3602.56zM91.52 22.06L120.1 38.56L120.1 71.56L91.52 88.06L62.94 71.56L62.94 38.56zM62.94 566.56L91.52 583.06L91.52 616.06L62.94 632.56L34.36 616.06L34.36 583.06zM62.94 764.56L91.52 781.06L91.52 814.06L62.94 830.56L34.36 814.06L34.36 781.06zM91.52 814.06L120.1 830.56L120.1 863.56L91.52 880.06L62.94 863.56L62.94 830.56zM62.94 1358.56L91.52 1375.06L91.52 1408.06L62.94 1424.56L34.36 1408.06L34.36 1375.06zM91.52 2101.06L120.1 2117.56L120.1 2150.56L91.52 2167.06L62.94 2150.56L62.94 2117.56zM62.94 2546.56L91.52 2563.06L91.52 2596.06L62.94 2612.56L34.36 2596.06L34.36 2563.06zM91.52 3091.06L120.1 3107.56L120.1 3140.56L91.52 3157.06L62.94 3140.56L62.94 3107.56zM62.94 3833.56L91.52 3850.06L91.52 3883.06L62.94 3899.56L34.36 3883.06L34.36 3850.06zM62.94 3932.56L91.52 3949.06L91.52 3982.06L62.94 3998.56L34.36 3982.06L34.36 3949.06zM120.1 -27.44L148.68 -10.94L148.68 22.06L120.1 38.56L91.52 22.06L91.52 -10.94zM120.1 467.56L148.68 484.06L148.68 517.06L120.1 533.56L91.52 517.06L91.52 484.06zM148.68 814.06L177.26 830.56L177.26 863.56L148.68 880.06L120.1 863.56L120.1 830.56zM148.68 1309.06L177.26 1325.56L177.26 1358.56L148.68 1375.06L120.1 1358.56L120.1 1325.56zM148.68 1606.06L177.26 1622.56L177.26 1655.56L148.68 1672.06L120.1 1655.56L120.1 1622.56zM120.1 2645.56L148.68 2662.06L148.68 2695.06L120.1 2711.56L91.52 2695.06L91.52 2662.06zM148.68 2794.06L177.26 2810.56L177.26 2843.56L148.68 2860.06L120.1 2843.56L120.1 2810.56zM148.68 2992.06L177.26 3008.56L177.26 3041.56L148.68 3058.06L120.1 3041.56L120.1 3008.56zM148.68 3784.06L177.26 3800.56L177.26 3833.56L148.68 3850.06L120.1 3833.56L120.1 3800.56zM177.26 -27.44L205.84 -10.94L205.84 22.06L177.26 38.56L148.68 22.06L148.68 -10.94zM205.84 121.06L234.42 137.56L234.42 170.56L205.84 187.06L177.26 170.56L177.26 137.56zM177.26 269.56L205.84 286.06L205.84 319.06L177.26 335.56L148.68 319.06L148.68 286.06zM205.84 319.06L234.42 335.56L234.42 368.56L205.84 385.06L177.26 368.56L177.26 335.56zM205.84 517.06L234.42 533.56L234.42 566.56L205.84 583.06L177.26 566.56L177.26 533.56zM177.26 1160.56L205.84 1177.06L205.84 1210.06L177.26 1226.56L148.68 1210.06L148.68 1177.06zM177.26 1853.56L205.84 1870.06L205.84 1903.06L177.26 1919.56L148.68 1903.06L148.68 1870.06zM177.26 2051.56L205.84 2068.06L205.84 2101.06L177.26 2117.56L148.68 2101.06L148.68 2068.06zM205.84 2695.06L234.42 2711.56L234.42 2744.56L205.84 2761.06L177.26 2744.56L177.26 2711.56zM177.26 3041.56L205.84 3058.06L205.84 3091.06L177.26 3107.56L148.68 3091.06L148.68 3058.06zM177.26 3140.56L205.84 3157.06L205.84 3190.06L177.26 3206.56L148.68 3190.06L148.68 3157.06zM205.84 3388.06L234.42 3404.56L234.42 3437.56L205.84 3454.06L177.26 3437.56L177.26 3404.56zM177.26 3437.56L205.84 3454.06L205.84 3487.06L177.26 3503.56L148.68 3487.06L148.68 3454.06zM205.84 3883.06L234.42 3899.56L234.42 3932.56L205.84 3949.06L177.26 3932.56L177.26 3899.56zM177.26 3932.56L205.84 3949.06L205.84 3982.06L177.26 3998.56L148.68 3982.06L148.68 3949.06zM263 814.06L291.58 830.56L291.58 863.56L263 880.06L234.42 863.56L234.42 830.56zM263 1507.06L291.58 1523.56L291.58 1556.56L263 1573.06L234.42 1556.56L234.42 1523.56zM263 2596.06L291.58 2612.56L291.58 2645.56L263 2662.06L234.42 2645.56L234.42 2612.56zM234.42 2645.56L263 2662.06L263 2695.06L234.42 2711.56L205.84 2695.06L205.84 2662.06zM263 2992.06L291.58 3008.56L291.58 3041.56L263 3058.06L234.42 3041.56L234.42 3008.56zM234.42 3041.56L263 3058.06L263 3091.06L234.42 3107.56L205.84 3091.06L205.84 3058.06zM263 3190.06L291.58 3206.56L291.58 3239.56L263 3256.06L234.42 3239.56L234.42 3206.56zM263 3487.06L291.58 3503.56L291.58 3536.56L263 3553.06L234.42 3536.56L234.42 3503.56zM263 3982.06L291.58 3998.56L291.58 4031.56L263 4048.06L234.42 4031.56L234.42 3998.56zM320.16 121.06L348.74 137.56L348.74 170.56L320.16 187.06L291.58 170.56L291.58 137.56zM320.16 616.06L348.74 632.56L348.74 665.56L320.16 682.06L291.58 665.56L291.58 632.56zM291.58 764.56L320.16 781.06L320.16 814.06L291.58 830.56L263 814.06L263 781.06zM320.16 814.06L348.74 830.56L348.74 863.56L320.16 880.06L291.58 863.56L291.58 830.56zM320.16 913.06L348.74 929.56L348.74 962.56L320.16 979.06L291.58 962.56L291.58 929.56zM291.58 962.56L320.16 979.06L320.16 1012.06L291.58 1028.56L263 1012.06L263 979.06zM320.16 1012.06L348.74 1028.56L348.74 1061.56L320.16 1078.06L291.58 1061.56L291.58 1028.56zM320.16 1507.06L348.74 1523.56L348.74 1556.56L320.16 1573.06L291.58 1556.56L291.58 1523.56zM320.16 1705.06L348.74 1721.56L348.74 1754.56L320.16 1771.06L291.58 1754.56L291.58 1721.56zM320.16 2200.06L348.74 2216.56L348.74 2249.56L320.16 2266.06L291.58 2249.56L291.58 2216.56zM291.58 2744.56L320.16 2761.06L320.16 2794.06L291.58 2810.56L263 2794.06L263 2761.06zM291.58 3041.56L320.16 3058.06L320.16 3091.06L291.58 3107.56L263 3091.06L263 3058.06zM320.16 3388.06L348.74 3404.56L348.74 3437.56L320.16 3454.06L291.58 3437.56L291.58 3404.56zM291.58 4031.56L320.16 4048.06L320.16 4081.06L291.58 4097.56L263 4081.06L263 4048.06zM348.74 269.56L377.32 286.06L377.32 319.06L348.74 335.56L320.16 319.06L320.16 286.06zM348.74 467.56L377.32 484.06L377.32 517.06L348.74 533.56L320.16 517.06L320.16 484.06zM348.74 863.56L377.32 880.06L377.32 913.06L348.74 929.56L320.16 913.06L320.16 880.06zM348.74 962.56L377.32 979.06L377.32 1012.06L348.74 1028.56L320.16 1012.06L320.16 979.06zM348.74 1754.56L377.32 1771.06L377.32 1804.06L348.74 1820.56L320.16 1804.06L320.16 1771.06zM377.32 2101.06L405.9 2117.56L405.9 2150.56L377.32 2167.06L348.74 2150.56L348.74 2117.56zM348.74 2348.56L377.32 2365.06L377.32 2398.06L348.74 2414.56L320.16 2398.06L320.16 2365.06zM377.32 2497.06L405.9 2513.56L405.9 2546.56L377.32 2563.06L348.74 2546.56L348.74 2513.56zM348.74 2546.56L377.32 2563.06L377.32 2596.06L348.74 2612.56L320.16 2596.06L320.16 2563.06zM377.32 2893.06L405.9 2909.56L405.9 2942.56L377.32 2959.06L348.74 2942.56L348.74 2909.56zM348.74 3833.56L377.32 3850.06L377.32 3883.06L348.74 3899.56L320.16 3883.06L320.16 3850.06zM348.74 4031.56L377.32 4048.06L377.32 4081.06L348.74 4097.56L320.16 4081.06L320.16 4048.06z" stroke="#03305d" stroke-width="2"></path><path d="M2.48 368.56 a3.3 3.3 0 1 0 6.6 0 a3.3 3.3 0 1 0 -6.6 0zM31.06 385.06 a3.3 3.3 0 1 0 6.6 0 a3.3 3.3 0 1 0 -6.6 0zM31.06 418.06 a3.3 3.3 0 1 0 6.6 0 a3.3 3.3 0 1 0 -6.6 0zM2.48 434.56 a3.3 3.3 0 1 0 6.6 0 a3.3 3.3 0 1 0 -6.6 0zM-26.1 418.06 a3.3 3.3 0 1 0 6.6 0 a3.3 3.3 0 1 0 -6.6 0zM-26.1 385.06 a3.3 3.3 0 1 0 6.6 0 a3.3 3.3 0 1 0 -6.6 0zM31.06 715.06 a3.3 3.3 0 1 0 6.6 0 a3.3 3.3 0 1 0 -6.6 0zM59.64 731.56 a3.3 3.3 0 1 0 6.6 0 a3.3 3.3 0 1 0 -6.6 0zM59.64 764.56 a3.3 3.3 0 1 0 6.6 0 a3.3 3.3 0 1 0 -6.6 0zM31.06 781.06 a3.3 3.3 0 1 0 6.6 0 a3.3 3.3 0 1 0 -6.6 0zM2.48 764.56 a3.3 3.3 0 1 0 6.6 0 a3.3 3.3 0 1 0 -6.6 0zM2.48 731.56 a3.3 3.3 0 1 0 6.6 0 a3.3 3.3 0 1 0 -6.6 0zM31.06 1903.06 a3.3 3.3 0 1 0 6.6 0 a3.3 3.3 0 1 0 -6.6 0zM59.64 1919.56 a3.3 3.3 0 1 0 6.6 0 a3.3 3.3 0 1 0 -6.6 0zM59.64 1952.56 a3.3 3.3 0 1 0 6.6 0 a3.3 3.3 0 1 0 -6.6 0zM31.06 1969.06 a3.3 3.3 0 1 0 6.6 0 a3.3 3.3 0 1 0 -6.6 0zM2.48 1952.56 a3.3 3.3 0 1 0 6.6 0 a3.3 3.3 0 1 0 -6.6 0zM2.48 1919.56 a3.3 3.3 0 1 0 6.6 0 a3.3 3.3 0 1 0 -6.6 0zM31.06 2794.06 a3.3 3.3 0 1 0 6.6 0 a3.3 3.3 0 1 0 -6.6 0zM59.64 2810.56 a3.3 3.3 0 1 0 6.6 0 a3.3 3.3 0 1 0 -6.6 0zM59.64 2843.56 a3.3 3.3 0 1 0 6.6 0 a3.3 3.3 0 1 0 -6.6 0zM31.06 2860.06 a3.3 3.3 0 1 0 6.6 0 a3.3 3.3 0 1 0 -6.6 0zM2.48 2843.56 a3.3 3.3 0 1 0 6.6 0 a3.3 3.3 0 1 0 -6.6 0zM2.48 2810.56 a3.3 3.3 0 1 0 6.6 0 a3.3 3.3 0 1 0 -6.6 0zM31.06 2893.06 a3.3 3.3 0 1 0 6.6 0 a3.3 3.3 0 1 0 -6.6 0zM2.48 2909.56 a3.3 3.3 0 1 0 6.6 0 a3.3 3.3 0 1 0 -6.6 0zM-26.1 2893.06 a3.3 3.3 0 1 0 6.6 0 a3.3 3.3 0 1 0 -6.6 0zM-26.1 2860.06 a3.3 3.3 0 1 0 6.6 0 a3.3 3.3 0 1 0 -6.6 0zM31.06 3289.06 a3.3 3.3 0 1 0 6.6 0 a3.3 3.3 0 1 0 -6.6 0zM59.64 3305.56 a3.3 3.3 0 1 0 6.6 0 a3.3 3.3 0 1 0 -6.6 0zM59.64 3338.56 a3.3 3.3 0 1 0 6.6 0 a3.3 3.3 0 1 0 -6.6 0zM31.06 3355.06 a3.3 3.3 0 1 0 6.6 0 a3.3 3.3 0 1 0 -6.6 0zM2.48 3338.56 a3.3 3.3 0 1 0 6.6 0 a3.3 3.3 0 1 0 -6.6 0zM2.48 3305.56 a3.3 3.3 0 1 0 6.6 0 a3.3 3.3 0 1 0 -6.6 0zM31.06 3586.06 a3.3 3.3 0 1 0 6.6 0 a3.3 3.3 0 1 0 -6.6 0zM59.64 3602.56 a3.3 3.3 0 1 0 6.6 0 a3.3 3.3 0 1 0 -6.6 0zM59.64 3635.56 a3.3 3.3 0 1 0 6.6 0 a3.3 3.3 0 1 0 -6.6 0zM31.06 3652.06 a3.3 3.3 0 1 0 6.6 0 a3.3 3.3 0 1 0 -6.6 0zM2.48 3635.56 a3.3 3.3 0 1 0 6.6 0 a3.3 3.3 0 1 0 -6.6 0zM2.48 3602.56 a3.3 3.3 0 1 0 6.6 0 a3.3 3.3 0 1 0 -6.6 0zM88.22 22.06 a3.3 3.3 0 1 0 6.6 0 a3.3 3.3 0 1 0 -6.6 0zM116.8 38.56 a3.3 3.3 0 1 0 6.6 0 a3.3 3.3 0 1 0 -6.6 0zM116.8 71.56 a3.3 3.3 0 1 0 6.6 0 a3.3 3.3 0 1 0 -6.6 0zM88.22 88.06 a3.3 3.3 0 1 0 6.6 0 a3.3 3.3 0 1 0 -6.6 0zM59.64 71.56 a3.3 3.3 0 1 0 6.6 0 a3.3 3.3 0 1 0 -6.6 0zM59.64 38.56 a3.3 3.3 0 1 0 6.6 0 a3.3 3.3 0 1 0 -6.6 0zM59.64 566.56 a3.3 3.3 0 1 0 6.6 0 a3.3 3.3 0 1 0 -6.6 0zM88.22 583.06 a3.3 3.3 0 1 0 6.6 0 a3.3 3.3 0 1 0 -6.6 0zM88.22 616.06 a3.3 3.3 0 1 0 6.6 0 a3.3 3.3 0 1 0 -6.6 0zM59.64 632.56 a3.3 3.3 0 1 0 6.6 0 a3.3 3.3 0 1 0 -6.6 0zM31.06 616.06 a3.3 3.3 0 1 0 6.6 0 a3.3 3.3 0 1 0 -6.6 0zM31.06 583.06 a3.3 3.3 0 1 0 6.6 0 a3.3 3.3 0 1 0 -6.6 0zM88.22 781.06 a3.3 3.3 0 1 0 6.6 0 a3.3 3.3 0 1 0 -6.6 0zM88.22 814.06 a3.3 3.3 0 1 0 6.6 0 a3.3 3.3 0 1 0 -6.6 0zM59.64 830.56 a3.3 3.3 0 1 0 6.6 0 a3.3 3.3 0 1 0 -6.6 0zM31.06 814.06 a3.3 3.3 0 1 0 6.6 0 a3.3 3.3 0 1 0 -6.6 0zM116.8 830.56 a3.3 3.3 0 1 0 6.6 0 a3.3 3.3 0 1 0 -6.6 0zM116.8 863.56 a3.3 3.3 0 1 0 6.6 0 a3.3 3.3 0 1 0 -6.6 0zM88.22 880.06 a3.3 3.3 0 1 0 6.6 0 a3.3 3.3 0 1 0 -6.6 0zM59.64 863.56 a3.3 3.3 0 1 0 6.6 0 a3.3 3.3 0 1 0 -6.6 0zM59.64 1358.56 a3.3 3.3 0 1 0 6.6 0 a3.3 3.3 0 1 0 -6.6 0zM88.22 1375.06 a3.3 3.3 0 1 0 6.6 0 a3.3 3.3 0 1 0 -6.6 0zM88.22 1408.06 a3.3 3.3 0 1 0 6.6 0 a3.3 3.3 0 1 0 -6.6 0zM59.64 1424.56 a3.3 3.3 0 1 0 6.6 0 a3.3 3.3 0 1 0 -6.6 0zM31.06 1408.06 a3.3 3.3 0 1 0 6.6 0 a3.3 3.3 0 1 0 -6.6 0zM31.06 1375.06 a3.3 3.3 0 1 0 6.6 0 a3.3 3.3 0 1 0 -6.6 0zM88.22 2101.06 a3.3 3.3 0 1 0 6.6 0 a3.3 3.3 0 1 0 -6.6 0zM116.8 2117.56 a3.3 3.3 0 1 0 6.6 0 a3.3 3.3 0 1 0 -6.6 0zM116.8 2150.56 a3.3 3.3 0 1 0 6.6 0 a3.3 3.3 0 1 0 -6.6 0zM88.22 2167.06 a3.3 3.3 0 1 0 6.6 0 a3.3 3.3 0 1 0 -6.6 0zM59.64 2150.56 a3.3 3.3 0 1 0 6.6 0 a3.3 3.3 0 1 0 -6.6 0zM59.64 2117.56 a3.3 3.3 0 1 0 6.6 0 a3.3 3.3 0 1 0 -6.6 0zM59.64 2546.56 a3.3 3.3 0 1 0 6.6 0 a3.3 3.3 0 1 0 -6.6 0zM88.22 2563.06 a3.3 3.3 0 1 0 6.6 0 a3.3 3.3 0 1 0 -6.6 0zM88.22 2596.06 a3.3 3.3 0 1 0 6.6 0 a3.3 3.3 0 1 0 -6.6 0zM59.64 2612.56 a3.3 3.3 0 1 0 6.6 0 a3.3 3.3 0 1 0 -6.6 0zM31.06 2596.06 a3.3 3.3 0 1 0 6.6 0 a3.3 3.3 0 1 0 -6.6 0zM31.06 2563.06 a3.3 3.3 0 1 0 6.6 0 a3.3 3.3 0 1 0 -6.6 0zM88.22 3091.06 a3.3 3.3 0 1 0 6.6 0 a3.3 3.3 0 1 0 -6.6 0zM116.8 3107.56 a3.3 3.3 0 1 0 6.6 0 a3.3 3.3 0 1 0 -6.6 0zM116.8 3140.56 a3.3 3.3 0 1 0 6.6 0 a3.3 3.3 0 1 0 -6.6 0zM88.22 3157.06 a3.3 3.3 0 1 0 6.6 0 a3.3 3.3 0 1 0 -6.6 0zM59.64 3140.56 a3.3 3.3 0 1 0 6.6 0 a3.3 3.3 0 1 0 -6.6 0zM59.64 3107.56 a3.3 3.3 0 1 0 6.6 0 a3.3 3.3 0 1 0 -6.6 0zM59.64 3833.56 a3.3 3.3 0 1 0 6.6 0 a3.3 3.3 0 1 0 -6.6 0zM88.22 3850.06 a3.3 3.3 0 1 0 6.6 0 a3.3 3.3 0 1 0 -6.6 0zM88.22 3883.06 a3.3 3.3 0 1 0 6.6 0 a3.3 3.3 0 1 0 -6.6 0zM59.64 3899.56 a3.3 3.3 0 1 0 6.6 0 a3.3 3.3 0 1 0 -6.6 0zM31.06 3883.06 a3.3 3.3 0 1 0 6.6 0 a3.3 3.3 0 1 0 -6.6 0zM31.06 3850.06 a3.3 3.3 0 1 0 6.6 0 a3.3 3.3 0 1 0 -6.6 0zM59.64 3932.56 a3.3 3.3 0 1 0 6.6 0 a3.3 3.3 0 1 0 -6.6 0zM88.22 3949.06 a3.3 3.3 0 1 0 6.6 0 a3.3 3.3 0 1 0 -6.6 0zM88.22 3982.06 a3.3 3.3 0 1 0 6.6 0 a3.3 3.3 0 1 0 -6.6 0zM59.64 3998.56 a3.3 3.3 0 1 0 6.6 0 a3.3 3.3 0 1 0 -6.6 0zM31.06 3982.06 a3.3 3.3 0 1 0 6.6 0 a3.3 3.3 0 1 0 -6.6 0zM31.06 3949.06 a3.3 3.3 0 1 0 6.6 0 a3.3 3.3 0 1 0 -6.6 0zM116.8 -27.44 a3.3 3.3 0 1 0 6.6 0 a3.3 3.3 0 1 0 -6.6 0zM145.38 -10.94 a3.3 3.3 0 1 0 6.6 0 a3.3 3.3 0 1 0 -6.6 0zM145.38 22.06 a3.3 3.3 0 1 0 6.6 0 a3.3 3.3 0 1 0 -6.6 0zM88.22 -10.94 a3.3 3.3 0 1 0 6.6 0 a3.3 3.3 0 1 0 -6.6 0zM116.8 467.56 a3.3 3.3 0 1 0 6.6 0 a3.3 3.3 0 1 0 -6.6 0zM145.38 484.06 a3.3 3.3 0 1 0 6.6 0 a3.3 3.3 0 1 0 -6.6 0zM145.38 517.06 a3.3 3.3 0 1 0 6.6 0 a3.3 3.3 0 1 0 -6.6 0zM116.8 533.56 a3.3 3.3 0 1 0 6.6 0 a3.3 3.3 0 1 0 -6.6 0zM88.22 517.06 a3.3 3.3 0 1 0 6.6 0 a3.3 3.3 0 1 0 -6.6 0zM88.22 484.06 a3.3 3.3 0 1 0 6.6 0 a3.3 3.3 0 1 0 -6.6 0zM145.38 814.06 a3.3 3.3 0 1 0 6.6 0 a3.3 3.3 0 1 0 -6.6 0zM173.96 830.56 a3.3 3.3 0 1 0 6.6 0 a3.3 3.3 0 1 0 -6.6 0zM173.96 863.56 a3.3 3.3 0 1 0 6.6 0 a3.3 3.3 0 1 0 -6.6 0zM145.38 880.06 a3.3 3.3 0 1 0 6.6 0 a3.3 3.3 0 1 0 -6.6 0zM145.38 1309.06 a3.3 3.3 0 1 0 6.6 0 a3.3 3.3 0 1 0 -6.6 0zM173.96 1325.56 a3.3 3.3 0 1 0 6.6 0 a3.3 3.3 0 1 0 -6.6 0zM173.96 1358.56 a3.3 3.3 0 1 0 6.6 0 a3.3 3.3 0 1 0 -6.6 0zM145.38 1375.06 a3.3 3.3 0 1 0 6.6 0 a3.3 3.3 0 1 0 -6.6 0zM116.8 1358.56 a3.3 3.3 0 1 0 6.6 0 a3.3 3.3 0 1 0 -6.6 0zM116.8 1325.56 a3.3 3.3 0 1 0 6.6 0 a3.3 3.3 0 1 0 -6.6 0zM145.38 1606.06 a3.3 3.3 0 1 0 6.6 0 a3.3 3.3 0 1 0 -6.6 0zM173.96 1622.56 a3.3 3.3 0 1 0 6.6 0 a3.3 3.3 0 1 0 -6.6 0zM173.96 1655.56 a3.3 3.3 0 1 0 6.6 0 a3.3 3.3 0 1 0 -6.6 0zM145.38 1672.06 a3.3 3.3 0 1 0 6.6 0 a3.3 3.3 0 1 0 -6.6 0zM116.8 1655.56 a3.3 3.3 0 1 0 6.6 0 a3.3 3.3 0 1 0 -6.6 0zM116.8 1622.56 a3.3 3.3 0 1 0 6.6 0 a3.3 3.3 0 1 0 -6.6 0zM116.8 2645.56 a3.3 3.3 0 1 0 6.6 0 a3.3 3.3 0 1 0 -6.6 0zM145.38 2662.06 a3.3 3.3 0 1 0 6.6 0 a3.3 3.3 0 1 0 -6.6 0zM145.38 2695.06 a3.3 3.3 0 1 0 6.6 0 a3.3 3.3 0 1 0 -6.6 0zM116.8 2711.56 a3.3 3.3 0 1 0 6.6 0 a3.3 3.3 0 1 0 -6.6 0zM88.22 2695.06 a3.3 3.3 0 1 0 6.6 0 a3.3 3.3 0 1 0 -6.6 0zM88.22 2662.06 a3.3 3.3 0 1 0 6.6 0 a3.3 3.3 0 1 0 -6.6 0zM145.38 2794.06 a3.3 3.3 0 1 0 6.6 0 a3.3 3.3 0 1 0 -6.6 0zM173.96 2810.56 a3.3 3.3 0 1 0 6.6 0 a3.3 3.3 0 1 0 -6.6 0zM173.96 2843.56 a3.3 3.3 0 1 0 6.6 0 a3.3 3.3 0 1 0 -6.6 0zM145.38 2860.06 a3.3 3.3 0 1 0 6.6 0 a3.3 3.3 0 1 0 -6.6 0zM116.8 2843.56 a3.3 3.3 0 1 0 6.6 0 a3.3 3.3 0 1 0 -6.6 0zM116.8 2810.56 a3.3 3.3 0 1 0 6.6 0 a3.3 3.3 0 1 0 -6.6 0zM145.38 2992.06 a3.3 3.3 0 1 0 6.6 0 a3.3 3.3 0 1 0 -6.6 0zM173.96 3008.56 a3.3 3.3 0 1 0 6.6 0 a3.3 3.3 0 1 0 -6.6 0zM173.96 3041.56 a3.3 3.3 0 1 0 6.6 0 a3.3 3.3 0 1 0 -6.6 0zM145.38 3058.06 a3.3 3.3 0 1 0 6.6 0 a3.3 3.3 0 1 0 -6.6 0zM116.8 3041.56 a3.3 3.3 0 1 0 6.6 0 a3.3 3.3 0 1 0 -6.6 0zM116.8 3008.56 a3.3 3.3 0 1 0 6.6 0 a3.3 3.3 0 1 0 -6.6 0zM145.38 3784.06 a3.3 3.3 0 1 0 6.6 0 a3.3 3.3 0 1 0 -6.6 0zM173.96 3800.56 a3.3 3.3 0 1 0 6.6 0 a3.3 3.3 0 1 0 -6.6 0zM173.96 3833.56 a3.3 3.3 0 1 0 6.6 0 a3.3 3.3 0 1 0 -6.6 0zM145.38 3850.06 a3.3 3.3 0 1 0 6.6 0 a3.3 3.3 0 1 0 -6.6 0zM116.8 3833.56 a3.3 3.3 0 1 0 6.6 0 a3.3 3.3 0 1 0 -6.6 0zM116.8 3800.56 a3.3 3.3 0 1 0 6.6 0 a3.3 3.3 0 1 0 -6.6 0zM173.96 -27.44 a3.3 3.3 0 1 0 6.6 0 a3.3 3.3 0 1 0 -6.6 0zM202.54 -10.94 a3.3 3.3 0 1 0 6.6 0 a3.3 3.3 0 1 0 -6.6 0zM202.54 22.06 a3.3 3.3 0 1 0 6.6 0 a3.3 3.3 0 1 0 -6.6 0zM173.96 38.56 a3.3 3.3 0 1 0 6.6 0 a3.3 3.3 0 1 0 -6.6 0zM202.54 121.06 a3.3 3.3 0 1 0 6.6 0 a3.3 3.3 0 1 0 -6.6 0zM231.12 137.56 a3.3 3.3 0 1 0 6.6 0 a3.3 3.3 0 1 0 -6.6 0zM231.12 170.56 a3.3 3.3 0 1 0 6.6 0 a3.3 3.3 0 1 0 -6.6 0zM202.54 187.06 a3.3 3.3 0 1 0 6.6 0 a3.3 3.3 0 1 0 -6.6 0zM173.96 170.56 a3.3 3.3 0 1 0 6.6 0 a3.3 3.3 0 1 0 -6.6 0zM173.96 137.56 a3.3 3.3 0 1 0 6.6 0 a3.3 3.3 0 1 0 -6.6 0zM173.96 269.56 a3.3 3.3 0 1 0 6.6 0 a3.3 3.3 0 1 0 -6.6 0zM202.54 286.06 a3.3 3.3 0 1 0 6.6 0 a3.3 3.3 0 1 0 -6.6 0zM202.54 319.06 a3.3 3.3 0 1 0 6.6 0 a3.3 3.3 0 1 0 -6.6 0zM173.96 335.56 a3.3 3.3 0 1 0 6.6 0 a3.3 3.3 0 1 0 -6.6 0zM145.38 319.06 a3.3 3.3 0 1 0 6.6 0 a3.3 3.3 0 1 0 -6.6 0zM145.38 286.06 a3.3 3.3 0 1 0 6.6 0 a3.3 3.3 0 1 0 -6.6 0zM231.12 335.56 a3.3 3.3 0 1 0 6.6 0 a3.3 3.3 0 1 0 -6.6 0zM231.12 368.56 a3.3 3.3 0 1 0 6.6 0 a3.3 3.3 0 1 0 -6.6 0zM202.54 385.06 a3.3 3.3 0 1 0 6.6 0 a3.3 3.3 0 1 0 -6.6 0zM173.96 368.56 a3.3 3.3 0 1 0 6.6 0 a3.3 3.3 0 1 0 -6.6 0zM202.54 517.06 a3.3 3.3 0 1 0 6.6 0 a3.3 3.3 0 1 0 -6.6 0zM231.12 533.56 a3.3 3.3 0 1 0 6.6 0 a3.3 3.3 0 1 0 -6.6 0zM231.12 566.56 a3.3 3.3 0 1 0 6.6 0 a3.3 3.3 0 1 0 -6.6 0zM202.54 583.06 a3.3 3.3 0 1 0 6.6 0 a3.3 3.3 0 1 0 -6.6 0zM173.96 566.56 a3.3 3.3 0 1 0 6.6 0 a3.3 3.3 0 1 0 -6.6 0zM173.96 533.56 a3.3 3.3 0 1 0 6.6 0 a3.3 3.3 0 1 0 -6.6 0zM173.96 1160.56 a3.3 3.3 0 1 0 6.6 0 a3.3 3.3 0 1 0 -6.6 0zM202.54 1177.06 a3.3 3.3 0 1 0 6.6 0 a3.3 3.3 0 1 0 -6.6 0zM202.54 1210.06 a3.3 3.3 0 1 0 6.6 0 a3.3 3.3 0 1 0 -6.6 0zM173.96 1226.56 a3.3 3.3 0 1 0 6.6 0 a3.3 3.3 0 1 0 -6.6 0zM145.38 1210.06 a3.3 3.3 0 1 0 6.6 0 a3.3 3.3 0 1 0 -6.6 0zM145.38 1177.06 a3.3 3.3 0 1 0 6.6 0 a3.3 3.3 0 1 0 -6.6 0zM173.96 1853.56 a3.3 3.3 0 1 0 6.6 0 a3.3 3.3 0 1 0 -6.6 0zM202.54 1870.06 a3.3 3.3 0 1 0 6.6 0 a3.3 3.3 0 1 0 -6.6 0zM202.54 1903.06 a3.3 3.3 0 1 0 6.6 0 a3.3 3.3 0 1 0 -6.6 0zM173.96 1919.56 a3.3 3.3 0 1 0 6.6 0 a3.3 3.3 0 1 0 -6.6 0zM145.38 1903.06 a3.3 3.3 0 1 0 6.6 0 a3.3 3.3 0 1 0 -6.6 0zM145.38 1870.06 a3.3 3.3 0 1 0 6.6 0 a3.3 3.3 0 1 0 -6.6 0zM173.96 2051.56 a3.3 3.3 0 1 0 6.6 0 a3.3 3.3 0 1 0 -6.6 0zM202.54 2068.06 a3.3 3.3 0 1 0 6.6 0 a3.3 3.3 0 1 0 -6.6 0zM202.54 2101.06 a3.3 3.3 0 1 0 6.6 0 a3.3 3.3 0 1 0 -6.6 0zM173.96 2117.56 a3.3 3.3 0 1 0 6.6 0 a3.3 3.3 0 1 0 -6.6 0zM145.38 2101.06 a3.3 3.3 0 1 0 6.6 0 a3.3 3.3 0 1 0 -6.6 0zM145.38 2068.06 a3.3 3.3 0 1 0 6.6 0 a3.3 3.3 0 1 0 -6.6 0zM202.54 2695.06 a3.3 3.3 0 1 0 6.6 0 a3.3 3.3 0 1 0 -6.6 0zM231.12 2711.56 a3.3 3.3 0 1 0 6.6 0 a3.3 3.3 0 1 0 -6.6 0zM231.12 2744.56 a3.3 3.3 0 1 0 6.6 0 a3.3 3.3 0 1 0 -6.6 0zM202.54 2761.06 a3.3 3.3 0 1 0 6.6 0 a3.3 3.3 0 1 0 -6.6 0zM173.96 2744.56 a3.3 3.3 0 1 0 6.6 0 a3.3 3.3 0 1 0 -6.6 0zM173.96 2711.56 a3.3 3.3 0 1 0 6.6 0 a3.3 3.3 0 1 0 -6.6 0zM202.54 3058.06 a3.3 3.3 0 1 0 6.6 0 a3.3 3.3 0 1 0 -6.6 0zM202.54 3091.06 a3.3 3.3 0 1 0 6.6 0 a3.3 3.3 0 1 0 -6.6 0zM173.96 3107.56 a3.3 3.3 0 1 0 6.6 0 a3.3 3.3 0 1 0 -6.6 0zM145.38 3091.06 a3.3 3.3 0 1 0 6.6 0 a3.3 3.3 0 1 0 -6.6 0zM173.96 3140.56 a3.3 3.3 0 1 0 6.6 0 a3.3 3.3 0 1 0 -6.6 0zM202.54 3157.06 a3.3 3.3 0 1 0 6.6 0 a3.3 3.3 0 1 0 -6.6 0zM202.54 3190.06 a3.3 3.3 0 1 0 6.6 0 a3.3 3.3 0 1 0 -6.6 0zM173.96 3206.56 a3.3 3.3 0 1 0 6.6 0 a3.3 3.3 0 1 0 -6.6 0zM145.38 3190.06 a3.3 3.3 0 1 0 6.6 0 a3.3 3.3 0 1 0 -6.6 0zM145.38 3157.06 a3.3 3.3 0 1 0 6.6 0 a3.3 3.3 0 1 0 -6.6 0zM202.54 3388.06 a3.3 3.3 0 1 0 6.6 0 a3.3 3.3 0 1 0 -6.6 0zM231.12 3404.56 a3.3 3.3 0 1 0 6.6 0 a3.3 3.3 0 1 0 -6.6 0zM231.12 3437.56 a3.3 3.3 0 1 0 6.6 0 a3.3 3.3 0 1 0 -6.6 0zM202.54 3454.06 a3.3 3.3 0 1 0 6.6 0 a3.3 3.3 0 1 0 -6.6 0zM173.96 3437.56 a3.3 3.3 0 1 0 6.6 0 a3.3 3.3 0 1 0 -6.6 0zM173.96 3404.56 a3.3 3.3 0 1 0 6.6 0 a3.3 3.3 0 1 0 -6.6 0zM202.54 3487.06 a3.3 3.3 0 1 0 6.6 0 a3.3 3.3 0 1 0 -6.6 0zM173.96 3503.56 a3.3 3.3 0 1 0 6.6 0 a3.3 3.3 0 1 0 -6.6 0zM145.38 3487.06 a3.3 3.3 0 1 0 6.6 0 a3.3 3.3 0 1 0 -6.6 0zM145.38 3454.06 a3.3 3.3 0 1 0 6.6 0 a3.3 3.3 0 1 0 -6.6 0zM202.54 3883.06 a3.3 3.3 0 1 0 6.6 0 a3.3 3.3 0 1 0 -6.6 0zM231.12 3899.56 a3.3 3.3 0 1 0 6.6 0 a3.3 3.3 0 1 0 -6.6 0zM231.12 3932.56 a3.3 3.3 0 1 0 6.6 0 a3.3 3.3 0 1 0 -6.6 0zM202.54 3949.06 a3.3 3.3 0 1 0 6.6 0 a3.3 3.3 0 1 0 -6.6 0zM173.96 3932.56 a3.3 3.3 0 1 0 6.6 0 a3.3 3.3 0 1 0 -6.6 0zM173.96 3899.56 a3.3 3.3 0 1 0 6.6 0 a3.3 3.3 0 1 0 -6.6 0zM202.54 3982.06 a3.3 3.3 0 1 0 6.6 0 a3.3 3.3 0 1 0 -6.6 0zM173.96 3998.56 a3.3 3.3 0 1 0 6.6 0 a3.3 3.3 0 1 0 -6.6 0zM145.38 3982.06 a3.3 3.3 0 1 0 6.6 0 a3.3 3.3 0 1 0 -6.6 0zM145.38 3949.06 a3.3 3.3 0 1 0 6.6 0 a3.3 3.3 0 1 0 -6.6 0zM259.7 814.06 a3.3 3.3 0 1 0 6.6 0 a3.3 3.3 0 1 0 -6.6 0zM288.28 830.56 a3.3 3.3 0 1 0 6.6 0 a3.3 3.3 0 1 0 -6.6 0zM288.28 863.56 a3.3 3.3 0 1 0 6.6 0 a3.3 3.3 0 1 0 -6.6 0zM259.7 880.06 a3.3 3.3 0 1 0 6.6 0 a3.3 3.3 0 1 0 -6.6 0zM231.12 863.56 a3.3 3.3 0 1 0 6.6 0 a3.3 3.3 0 1 0 -6.6 0zM231.12 830.56 a3.3 3.3 0 1 0 6.6 0 a3.3 3.3 0 1 0 -6.6 0zM259.7 1507.06 a3.3 3.3 0 1 0 6.6 0 a3.3 3.3 0 1 0 -6.6 0zM288.28 1523.56 a3.3 3.3 0 1 0 6.6 0 a3.3 3.3 0 1 0 -6.6 0zM288.28 1556.56 a3.3 3.3 0 1 0 6.6 0 a3.3 3.3 0 1 0 -6.6 0zM259.7 1573.06 a3.3 3.3 0 1 0 6.6 0 a3.3 3.3 0 1 0 -6.6 0zM231.12 1556.56 a3.3 3.3 0 1 0 6.6 0 a3.3 3.3 0 1 0 -6.6 0zM231.12 1523.56 a3.3 3.3 0 1 0 6.6 0 a3.3 3.3 0 1 0 -6.6 0zM259.7 2596.06 a3.3 3.3 0 1 0 6.6 0 a3.3 3.3 0 1 0 -6.6 0zM288.28 2612.56 a3.3 3.3 0 1 0 6.6 0 a3.3 3.3 0 1 0 -6.6 0zM288.28 2645.56 a3.3 3.3 0 1 0 6.6 0 a3.3 3.3 0 1 0 -6.6 0zM259.7 2662.06 a3.3 3.3 0 1 0 6.6 0 a3.3 3.3 0 1 0 -6.6 0zM231.12 2645.56 a3.3 3.3 0 1 0 6.6 0 a3.3 3.3 0 1 0 -6.6 0zM231.12 2612.56 a3.3 3.3 0 1 0 6.6 0 a3.3 3.3 0 1 0 -6.6 0zM259.7 2695.06 a3.3 3.3 0 1 0 6.6 0 a3.3 3.3 0 1 0 -6.6 0zM202.54 2662.06 a3.3 3.3 0 1 0 6.6 0 a3.3 3.3 0 1 0 -6.6 0zM259.7 2992.06 a3.3 3.3 0 1 0 6.6 0 a3.3 3.3 0 1 0 -6.6 0zM288.28 3008.56 a3.3 3.3 0 1 0 6.6 0 a3.3 3.3 0 1 0 -6.6 0zM288.28 3041.56 a3.3 3.3 0 1 0 6.6 0 a3.3 3.3 0 1 0 -6.6 0zM259.7 3058.06 a3.3 3.3 0 1 0 6.6 0 a3.3 3.3 0 1 0 -6.6 0zM231.12 3041.56 a3.3 3.3 0 1 0 6.6 0 a3.3 3.3 0 1 0 -6.6 0zM231.12 3008.56 a3.3 3.3 0 1 0 6.6 0 a3.3 3.3 0 1 0 -6.6 0zM259.7 3091.06 a3.3 3.3 0 1 0 6.6 0 a3.3 3.3 0 1 0 -6.6 0zM231.12 3107.56 a3.3 3.3 0 1 0 6.6 0 a3.3 3.3 0 1 0 -6.6 0zM259.7 3190.06 a3.3 3.3 0 1 0 6.6 0 a3.3 3.3 0 1 0 -6.6 0zM288.28 3206.56 a3.3 3.3 0 1 0 6.6 0 a3.3 3.3 0 1 0 -6.6 0zM288.28 3239.56 a3.3 3.3 0 1 0 6.6 0 a3.3 3.3 0 1 0 -6.6 0zM259.7 3256.06 a3.3 3.3 0 1 0 6.6 0 a3.3 3.3 0 1 0 -6.6 0zM231.12 3239.56 a3.3 3.3 0 1 0 6.6 0 a3.3 3.3 0 1 0 -6.6 0zM231.12 3206.56 a3.3 3.3 0 1 0 6.6 0 a3.3 3.3 0 1 0 -6.6 0zM259.7 3487.06 a3.3 3.3 0 1 0 6.6 0 a3.3 3.3 0 1 0 -6.6 0zM288.28 3503.56 a3.3 3.3 0 1 0 6.6 0 a3.3 3.3 0 1 0 -6.6 0zM288.28 3536.56 a3.3 3.3 0 1 0 6.6 0 a3.3 3.3 0 1 0 -6.6 0zM259.7 3553.06 a3.3 3.3 0 1 0 6.6 0 a3.3 3.3 0 1 0 -6.6 0zM231.12 3536.56 a3.3 3.3 0 1 0 6.6 0 a3.3 3.3 0 1 0 -6.6 0zM231.12 3503.56 a3.3 3.3 0 1 0 6.6 0 a3.3 3.3 0 1 0 -6.6 0zM259.7 3982.06 a3.3 3.3 0 1 0 6.6 0 a3.3 3.3 0 1 0 -6.6 0zM288.28 3998.56 a3.3 3.3 0 1 0 6.6 0 a3.3 3.3 0 1 0 -6.6 0zM288.28 4031.56 a3.3 3.3 0 1 0 6.6 0 a3.3 3.3 0 1 0 -6.6 0zM259.7 4048.06 a3.3 3.3 0 1 0 6.6 0 a3.3 3.3 0 1 0 -6.6 0zM231.12 4031.56 a3.3 3.3 0 1 0 6.6 0 a3.3 3.3 0 1 0 -6.6 0zM231.12 3998.56 a3.3 3.3 0 1 0 6.6 0 a3.3 3.3 0 1 0 -6.6 0zM316.86 121.06 a3.3 3.3 0 1 0 6.6 0 a3.3 3.3 0 1 0 -6.6 0zM345.44 137.56 a3.3 3.3 0 1 0 6.6 0 a3.3 3.3 0 1 0 -6.6 0zM345.44 170.56 a3.3 3.3 0 1 0 6.6 0 a3.3 3.3 0 1 0 -6.6 0zM316.86 187.06 a3.3 3.3 0 1 0 6.6 0 a3.3 3.3 0 1 0 -6.6 0zM288.28 170.56 a3.3 3.3 0 1 0 6.6 0 a3.3 3.3 0 1 0 -6.6 0zM288.28 137.56 a3.3 3.3 0 1 0 6.6 0 a3.3 3.3 0 1 0 -6.6 0zM316.86 616.06 a3.3 3.3 0 1 0 6.6 0 a3.3 3.3 0 1 0 -6.6 0zM345.44 632.56 a3.3 3.3 0 1 0 6.6 0 a3.3 3.3 0 1 0 -6.6 0zM345.44 665.56 a3.3 3.3 0 1 0 6.6 0 a3.3 3.3 0 1 0 -6.6 0zM316.86 682.06 a3.3 3.3 0 1 0 6.6 0 a3.3 3.3 0 1 0 -6.6 0zM288.28 665.56 a3.3 3.3 0 1 0 6.6 0 a3.3 3.3 0 1 0 -6.6 0zM288.28 632.56 a3.3 3.3 0 1 0 6.6 0 a3.3 3.3 0 1 0 -6.6 0zM288.28 764.56 a3.3 3.3 0 1 0 6.6 0 a3.3 3.3 0 1 0 -6.6 0zM316.86 781.06 a3.3 3.3 0 1 0 6.6 0 a3.3 3.3 0 1 0 -6.6 0zM316.86 814.06 a3.3 3.3 0 1 0 6.6 0 a3.3 3.3 0 1 0 -6.6 0zM259.7 781.06 a3.3 3.3 0 1 0 6.6 0 a3.3 3.3 0 1 0 -6.6 0zM345.44 830.56 a3.3 3.3 0 1 0 6.6 0 a3.3 3.3 0 1 0 -6.6 0zM345.44 863.56 a3.3 3.3 0 1 0 6.6 0 a3.3 3.3 0 1 0 -6.6 0zM316.86 880.06 a3.3 3.3 0 1 0 6.6 0 a3.3 3.3 0 1 0 -6.6 0zM316.86 913.06 a3.3 3.3 0 1 0 6.6 0 a3.3 3.3 0 1 0 -6.6 0zM345.44 929.56 a3.3 3.3 0 1 0 6.6 0 a3.3 3.3 0 1 0 -6.6 0zM345.44 962.56 a3.3 3.3 0 1 0 6.6 0 a3.3 3.3 0 1 0 -6.6 0zM316.86 979.06 a3.3 3.3 0 1 0 6.6 0 a3.3 3.3 0 1 0 -6.6 0zM288.28 962.56 a3.3 3.3 0 1 0 6.6 0 a3.3 3.3 0 1 0 -6.6 0zM288.28 929.56 a3.3 3.3 0 1 0 6.6 0 a3.3 3.3 0 1 0 -6.6 0zM316.86 1012.06 a3.3 3.3 0 1 0 6.6 0 a3.3 3.3 0 1 0 -6.6 0zM288.28 1028.56 a3.3 3.3 0 1 0 6.6 0 a3.3 3.3 0 1 0 -6.6 0zM259.7 1012.06 a3.3 3.3 0 1 0 6.6 0 a3.3 3.3 0 1 0 -6.6 0zM259.7 979.06 a3.3 3.3 0 1 0 6.6 0 a3.3 3.3 0 1 0 -6.6 0zM345.44 1028.56 a3.3 3.3 0 1 0 6.6 0 a3.3 3.3 0 1 0 -6.6 0zM345.44 1061.56 a3.3 3.3 0 1 0 6.6 0 a3.3 3.3 0 1 0 -6.6 0zM316.86 1078.06 a3.3 3.3 0 1 0 6.6 0 a3.3 3.3 0 1 0 -6.6 0zM288.28 1061.56 a3.3 3.3 0 1 0 6.6 0 a3.3 3.3 0 1 0 -6.6 0zM316.86 1507.06 a3.3 3.3 0 1 0 6.6 0 a3.3 3.3 0 1 0 -6.6 0zM345.44 1523.56 a3.3 3.3 0 1 0 6.6 0 a3.3 3.3 0 1 0 -6.6 0zM345.44 1556.56 a3.3 3.3 0 1 0 6.6 0 a3.3 3.3 0 1 0 -6.6 0zM316.86 1573.06 a3.3 3.3 0 1 0 6.6 0 a3.3 3.3 0 1 0 -6.6 0zM316.86 1705.06 a3.3 3.3 0 1 0 6.6 0 a3.3 3.3 0 1 0 -6.6 0zM345.44 1721.56 a3.3 3.3 0 1 0 6.6 0 a3.3 3.3 0 1 0 -6.6 0zM345.44 1754.56 a3.3 3.3 0 1 0 6.6 0 a3.3 3.3 0 1 0 -6.6 0zM316.86 1771.06 a3.3 3.3 0 1 0 6.6 0 a3.3 3.3 0 1 0 -6.6 0zM288.28 1754.56 a3.3 3.3 0 1 0 6.6 0 a3.3 3.3 0 1 0 -6.6 0zM288.28 1721.56 a3.3 3.3 0 1 0 6.6 0 a3.3 3.3 0 1 0 -6.6 0zM316.86 2200.06 a3.3 3.3 0 1 0 6.6 0 a3.3 3.3 0 1 0 -6.6 0zM345.44 2216.56 a3.3 3.3 0 1 0 6.6 0 a3.3 3.3 0 1 0 -6.6 0zM345.44 2249.56 a3.3 3.3 0 1 0 6.6 0 a3.3 3.3 0 1 0 -6.6 0zM316.86 2266.06 a3.3 3.3 0 1 0 6.6 0 a3.3 3.3 0 1 0 -6.6 0zM288.28 2249.56 a3.3 3.3 0 1 0 6.6 0 a3.3 3.3 0 1 0 -6.6 0zM288.28 2216.56 a3.3 3.3 0 1 0 6.6 0 a3.3 3.3 0 1 0 -6.6 0zM288.28 2744.56 a3.3 3.3 0 1 0 6.6 0 a3.3 3.3 0 1 0 -6.6 0zM316.86 2761.06 a3.3 3.3 0 1 0 6.6 0 a3.3 3.3 0 1 0 -6.6 0zM316.86 2794.06 a3.3 3.3 0 1 0 6.6 0 a3.3 3.3 0 1 0 -6.6 0zM288.28 2810.56 a3.3 3.3 0 1 0 6.6 0 a3.3 3.3 0 1 0 -6.6 0zM259.7 2794.06 a3.3 3.3 0 1 0 6.6 0 a3.3 3.3 0 1 0 -6.6 0zM259.7 2761.06 a3.3 3.3 0 1 0 6.6 0 a3.3 3.3 0 1 0 -6.6 0zM316.86 3058.06 a3.3 3.3 0 1 0 6.6 0 a3.3 3.3 0 1 0 -6.6 0zM316.86 3091.06 a3.3 3.3 0 1 0 6.6 0 a3.3 3.3 0 1 0 -6.6 0zM288.28 3107.56 a3.3 3.3 0 1 0 6.6 0 a3.3 3.3 0 1 0 -6.6 0zM316.86 3388.06 a3.3 3.3 0 1 0 6.6 0 a3.3 3.3 0 1 0 -6.6 0zM345.44 3404.56 a3.3 3.3 0 1 0 6.6 0 a3.3 3.3 0 1 0 -6.6 0zM345.44 3437.56 a3.3 3.3 0 1 0 6.6 0 a3.3 3.3 0 1 0 -6.6 0zM316.86 3454.06 a3.3 3.3 0 1 0 6.6 0 a3.3 3.3 0 1 0 -6.6 0zM288.28 3437.56 a3.3 3.3 0 1 0 6.6 0 a3.3 3.3 0 1 0 -6.6 0zM288.28 3404.56 a3.3 3.3 0 1 0 6.6 0 a3.3 3.3 0 1 0 -6.6 0zM316.86 4048.06 a3.3 3.3 0 1 0 6.6 0 a3.3 3.3 0 1 0 -6.6 0zM316.86 4081.06 a3.3 3.3 0 1 0 6.6 0 a3.3 3.3 0 1 0 -6.6 0zM288.28 4097.56 a3.3 3.3 0 1 0 6.6 0 a3.3 3.3 0 1 0 -6.6 0zM259.7 4081.06 a3.3 3.3 0 1 0 6.6 0 a3.3 3.3 0 1 0 -6.6 0zM345.44 269.56 a3.3 3.3 0 1 0 6.6 0 a3.3 3.3 0 1 0 -6.6 0zM374.02 286.06 a3.3 3.3 0 1 0 6.6 0 a3.3 3.3 0 1 0 -6.6 0zM374.02 319.06 a3.3 3.3 0 1 0 6.6 0 a3.3 3.3 0 1 0 -6.6 0zM345.44 335.56 a3.3 3.3 0 1 0 6.6 0 a3.3 3.3 0 1 0 -6.6 0zM316.86 319.06 a3.3 3.3 0 1 0 6.6 0 a3.3 3.3 0 1 0 -6.6 0zM316.86 286.06 a3.3 3.3 0 1 0 6.6 0 a3.3 3.3 0 1 0 -6.6 0zM345.44 467.56 a3.3 3.3 0 1 0 6.6 0 a3.3 3.3 0 1 0 -6.6 0zM374.02 484.06 a3.3 3.3 0 1 0 6.6 0 a3.3 3.3 0 1 0 -6.6 0zM374.02 517.06 a3.3 3.3 0 1 0 6.6 0 a3.3 3.3 0 1 0 -6.6 0zM345.44 533.56 a3.3 3.3 0 1 0 6.6 0 a3.3 3.3 0 1 0 -6.6 0zM316.86 517.06 a3.3 3.3 0 1 0 6.6 0 a3.3 3.3 0 1 0 -6.6 0zM316.86 484.06 a3.3 3.3 0 1 0 6.6 0 a3.3 3.3 0 1 0 -6.6 0zM374.02 880.06 a3.3 3.3 0 1 0 6.6 0 a3.3 3.3 0 1 0 -6.6 0zM374.02 913.06 a3.3 3.3 0 1 0 6.6 0 a3.3 3.3 0 1 0 -6.6 0zM374.02 979.06 a3.3 3.3 0 1 0 6.6 0 a3.3 3.3 0 1 0 -6.6 0zM374.02 1012.06 a3.3 3.3 0 1 0 6.6 0 a3.3 3.3 0 1 0 -6.6 0zM374.02 1771.06 a3.3 3.3 0 1 0 6.6 0 a3.3 3.3 0 1 0 -6.6 0zM374.02 1804.06 a3.3 3.3 0 1 0 6.6 0 a3.3 3.3 0 1 0 -6.6 0zM345.44 1820.56 a3.3 3.3 0 1 0 6.6 0 a3.3 3.3 0 1 0 -6.6 0zM316.86 1804.06 a3.3 3.3 0 1 0 6.6 0 a3.3 3.3 0 1 0 -6.6 0zM374.02 2101.06 a3.3 3.3 0 1 0 6.6 0 a3.3 3.3 0 1 0 -6.6 0zM402.6 2117.56 a3.3 3.3 0 1 0 6.6 0 a3.3 3.3 0 1 0 -6.6 0zM402.6 2150.56 a3.3 3.3 0 1 0 6.6 0 a3.3 3.3 0 1 0 -6.6 0zM374.02 2167.06 a3.3 3.3 0 1 0 6.6 0 a3.3 3.3 0 1 0 -6.6 0zM345.44 2150.56 a3.3 3.3 0 1 0 6.6 0 a3.3 3.3 0 1 0 -6.6 0zM345.44 2117.56 a3.3 3.3 0 1 0 6.6 0 a3.3 3.3 0 1 0 -6.6 0zM345.44 2348.56 a3.3 3.3 0 1 0 6.6 0 a3.3 3.3 0 1 0 -6.6 0zM374.02 2365.06 a3.3 3.3 0 1 0 6.6 0 a3.3 3.3 0 1 0 -6.6 0zM374.02 2398.06 a3.3 3.3 0 1 0 6.6 0 a3.3 3.3 0 1 0 -6.6 0zM345.44 2414.56 a3.3 3.3 0 1 0 6.6 0 a3.3 3.3 0 1 0 -6.6 0zM316.86 2398.06 a3.3 3.3 0 1 0 6.6 0 a3.3 3.3 0 1 0 -6.6 0zM316.86 2365.06 a3.3 3.3 0 1 0 6.6 0 a3.3 3.3 0 1 0 -6.6 0zM374.02 2497.06 a3.3 3.3 0 1 0 6.6 0 a3.3 3.3 0 1 0 -6.6 0zM402.6 2513.56 a3.3 3.3 0 1 0 6.6 0 a3.3 3.3 0 1 0 -6.6 0zM402.6 2546.56 a3.3 3.3 0 1 0 6.6 0 a3.3 3.3 0 1 0 -6.6 0zM374.02 2563.06 a3.3 3.3 0 1 0 6.6 0 a3.3 3.3 0 1 0 -6.6 0zM345.44 2546.56 a3.3 3.3 0 1 0 6.6 0 a3.3 3.3 0 1 0 -6.6 0zM345.44 2513.56 a3.3 3.3 0 1 0 6.6 0 a3.3 3.3 0 1 0 -6.6 0zM374.02 2596.06 a3.3 3.3 0 1 0 6.6 0 a3.3 3.3 0 1 0 -6.6 0zM345.44 2612.56 a3.3 3.3 0 1 0 6.6 0 a3.3 3.3 0 1 0 -6.6 0zM316.86 2596.06 a3.3 3.3 0 1 0 6.6 0 a3.3 3.3 0 1 0 -6.6 0zM316.86 2563.06 a3.3 3.3 0 1 0 6.6 0 a3.3 3.3 0 1 0 -6.6 0zM374.02 2893.06 a3.3 3.3 0 1 0 6.6 0 a3.3 3.3 0 1 0 -6.6 0zM402.6 2909.56 a3.3 3.3 0 1 0 6.6 0 a3.3 3.3 0 1 0 -6.6 0zM402.6 2942.56 a3.3 3.3 0 1 0 6.6 0 a3.3 3.3 0 1 0 -6.6 0zM374.02 2959.06 a3.3 3.3 0 1 0 6.6 0 a3.3 3.3 0 1 0 -6.6 0zM345.44 2942.56 a3.3 3.3 0 1 0 6.6 0 a3.3 3.3 0 1 0 -6.6 0zM345.44 2909.56 a3.3 3.3 0 1 0 6.6 0 a3.3 3.3 0 1 0 -6.6 0zM345.44 3833.56 a3.3 3.3 0 1 0 6.6 0 a3.3 3.3 0 1 0 -6.6 0zM374.02 3850.06 a3.3 3.3 0 1 0 6.6 0 a3.3 3.3 0 1 0 -6.6 0zM374.02 3883.06 a3.3 3.3 0 1 0 6.6 0 a3.3 3.3 0 1 0 -6.6 0zM345.44 3899.56 a3.3 3.3 0 1 0 6.6 0 a3.3 3.3 0 1 0 -6.6 0zM316.86 3883.06 a3.3 3.3 0 1 0 6.6 0 a3.3 3.3 0 1 0 -6.6 0zM316.86 3850.06 a3.3 3.3 0 1 0 6.6 0 a3.3 3.3 0 1 0 -6.6 0zM345.44 4031.56 a3.3 3.3 0 1 0 6.6 0 a3.3 3.3 0 1 0 -6.6 0zM374.02 4048.06 a3.3 3.3 0 1 0 6.6 0 a3.3 3.3 0 1 0 -6.6 0zM374.02 4081.06 a3.3 3.3 0 1 0 6.6 0 a3.3 3.3 0 1 0 -6.6 0zM345.44 4097.56 a3.3 3.3 0 1 0 6.6 0 a3.3 3.3 0 1 0 -6.6 0z" fill="#03305d"></path><path d="M51.22 70.89L99.72 98.89L99.72 154.89L51.22 182.89L2.72 154.89L2.72 98.89zM51.22 406.89L99.72 434.89L99.72 490.89L51.22 518.89L2.72 490.89L2.72 434.89zM51.22 1078.89L99.72 1106.89L99.72 1162.89L51.22 1190.89L2.72 1162.89L2.72 1106.89zM2.72 1162.89L51.22 1190.89L51.22 1246.89L2.72 1274.89L-45.78 1246.89L-45.78 1190.89zM2.72 1666.89L51.22 1694.89L51.22 1750.89L2.72 1778.89L-45.78 1750.89L-45.78 1694.89zM2.72 2842.89L51.22 2870.89L51.22 2926.89L2.72 2954.89L-45.78 2926.89L-45.78 2870.89zM51.22 2926.89L99.72 2954.89L99.72 3010.89L51.22 3038.89L2.72 3010.89L2.72 2954.89zM2.72 3514.89L51.22 3542.89L51.22 3598.89L2.72 3626.89L-45.78 3598.89L-45.78 3542.89zM51.22 3598.89L99.72 3626.89L99.72 3682.89L51.22 3710.89L2.72 3682.89L2.72 3626.89zM99.72 994.89L148.22 1022.89L148.22 1078.89L99.72 1106.89L51.22 1078.89L51.22 1022.89zM148.22 1246.89L196.72 1274.89L196.72 1330.89L148.22 1358.89L99.72 1330.89L99.72 1274.89zM99.72 1330.89L148.22 1358.89L148.22 1414.89L99.72 1442.89L51.22 1414.89L51.22 1358.89zM99.72 1498.89L148.22 1526.89L148.22 1582.89L99.72 1610.89L51.22 1582.89L51.22 1526.89zM99.72 1834.89L148.22 1862.89L148.22 1918.89L99.72 1946.89L51.22 1918.89L51.22 1862.89zM99.72 2506.89L148.22 2534.89L148.22 2590.89L99.72 2618.89L51.22 2590.89L51.22 2534.89zM99.72 3346.89L148.22 3374.89L148.22 3430.89L99.72 3458.89L51.22 3430.89L51.22 3374.89zM148.22 3934.89L196.72 3962.89L196.72 4018.89L148.22 4046.89L99.72 4018.89L99.72 3962.89zM99.72 4018.89L148.22 4046.89L148.22 4102.89L99.72 4130.89L51.22 4102.89L51.22 4046.89zM196.72 -13.11L245.21 14.89L245.21 70.89L196.72 98.89L148.22 70.89L148.22 14.89zM196.72 490.89L245.21 518.89L245.21 574.89L196.72 602.89L148.22 574.89L148.22 518.89zM245.21 1078.89L293.71 1106.89L293.71 1162.89L245.21 1190.89L196.72 1162.89L196.72 1106.89zM196.72 1330.89L245.21 1358.89L245.21 1414.89L196.72 1442.89L148.22 1414.89L148.22 1358.89zM245.21 1414.89L293.71 1442.89L293.71 1498.89L245.21 1526.89L196.72 1498.89L196.72 1442.89zM196.72 1834.89L245.21 1862.89L245.21 1918.89L196.72 1946.89L148.22 1918.89L148.22 1862.89zM196.72 2170.89L245.21 2198.89L245.21 2254.89L196.72 2282.89L148.22 2254.89L148.22 2198.89zM245.21 2254.89L293.71 2282.89L293.71 2338.89L245.21 2366.89L196.72 2338.89L196.72 2282.89zM196.72 2338.89L245.21 2366.89L245.21 2422.89L196.72 2450.89L148.22 2422.89L148.22 2366.89zM245.21 2422.89L293.71 2450.89L293.71 2506.89L245.21 2534.89L196.72 2506.89L196.72 2450.89zM245.21 3094.89L293.71 3122.89L293.71 3178.89L245.21 3206.89L196.72 3178.89L196.72 3122.89zM196.72 3346.89L245.21 3374.89L245.21 3430.89L196.72 3458.89L148.22 3430.89L148.22 3374.89zM245.21 3430.89L293.71 3458.89L293.71 3514.89L245.21 3542.89L196.72 3514.89L196.72 3458.89zM196.72 3850.89L245.21 3878.89L245.21 3934.89L196.72 3962.89L148.22 3934.89L148.22 3878.89zM293.71 154.89L342.21 182.89L342.21 238.89L293.71 266.89L245.21 238.89L245.21 182.89zM293.71 490.89L342.21 518.89L342.21 574.89L293.71 602.89L245.21 574.89L245.21 518.89zM293.71 1162.89L342.21 1190.89L342.21 1246.89L293.71 1274.89L245.21 1246.89L245.21 1190.89zM293.71 1330.89L342.21 1358.89L342.21 1414.89L293.71 1442.89L245.21 1414.89L245.21 1358.89zM342.21 1750.89L390.71 1778.89L390.71 1834.89L342.21 1862.89L293.71 1834.89L293.71 1778.89zM293.71 2338.89L342.21 2366.89L342.21 2422.89L293.71 2450.89L245.21 2422.89L245.21 2366.89zM342.21 2422.89L390.71 2450.89L390.71 2506.89L342.21 2534.89L293.71 2506.89L293.71 2450.89zM293.71 2674.89L342.21 2702.89L342.21 2758.89L293.71 2786.89L245.21 2758.89L245.21 2702.89zM342.21 2758.89L390.71 2786.89L390.71 2842.89L342.21 2870.89L293.71 2842.89L293.71 2786.89zM342.21 3766.89L390.71 3794.89L390.71 3850.89L342.21 3878.89L293.71 3850.89L293.71 3794.89zM293.71 4018.89L342.21 4046.89L342.21 4102.89L293.71 4130.89L245.21 4102.89L245.21 4046.89z" stroke="rgba(6, 80, 156, 0.93)" stroke-width="2"></path><path d="M45.62 70.89 a5.6 5.6 0 1 0 11.2 0 a5.6 5.6 0 1 0 -11.2 0zM94.12 98.89 a5.6 5.6 0 1 0 11.2 0 a5.6 5.6 0 1 0 -11.2 0zM94.12 154.89 a5.6 5.6 0 1 0 11.2 0 a5.6 5.6 0 1 0 -11.2 0zM45.62 182.89 a5.6 5.6 0 1 0 11.2 0 a5.6 5.6 0 1 0 -11.2 0zM-2.88 154.89 a5.6 5.6 0 1 0 11.2 0 a5.6 5.6 0 1 0 -11.2 0zM-2.88 98.89 a5.6 5.6 0 1 0 11.2 0 a5.6 5.6 0 1 0 -11.2 0zM45.62 406.89 a5.6 5.6 0 1 0 11.2 0 a5.6 5.6 0 1 0 -11.2 0zM94.12 434.89 a5.6 5.6 0 1 0 11.2 0 a5.6 5.6 0 1 0 -11.2 0zM94.12 490.89 a5.6 5.6 0 1 0 11.2 0 a5.6 5.6 0 1 0 -11.2 0zM45.62 518.89 a5.6 5.6 0 1 0 11.2 0 a5.6 5.6 0 1 0 -11.2 0zM-2.88 490.89 a5.6 5.6 0 1 0 11.2 0 a5.6 5.6 0 1 0 -11.2 0zM-2.88 434.89 a5.6 5.6 0 1 0 11.2 0 a5.6 5.6 0 1 0 -11.2 0zM45.62 1078.89 a5.6 5.6 0 1 0 11.2 0 a5.6 5.6 0 1 0 -11.2 0zM94.12 1106.89 a5.6 5.6 0 1 0 11.2 0 a5.6 5.6 0 1 0 -11.2 0zM94.12 1162.89 a5.6 5.6 0 1 0 11.2 0 a5.6 5.6 0 1 0 -11.2 0zM45.62 1190.89 a5.6 5.6 0 1 0 11.2 0 a5.6 5.6 0 1 0 -11.2 0zM-2.88 1162.89 a5.6 5.6 0 1 0 11.2 0 a5.6 5.6 0 1 0 -11.2 0zM-2.88 1106.89 a5.6 5.6 0 1 0 11.2 0 a5.6 5.6 0 1 0 -11.2 0zM45.62 1246.89 a5.6 5.6 0 1 0 11.2 0 a5.6 5.6 0 1 0 -11.2 0zM-2.88 1274.89 a5.6 5.6 0 1 0 11.2 0 a5.6 5.6 0 1 0 -11.2 0zM-51.38 1246.89 a5.6 5.6 0 1 0 11.2 0 a5.6 5.6 0 1 0 -11.2 0zM-51.38 1190.89 a5.6 5.6 0 1 0 11.2 0 a5.6 5.6 0 1 0 -11.2 0zM-2.88 1666.89 a5.6 5.6 0 1 0 11.2 0 a5.6 5.6 0 1 0 -11.2 0zM45.62 1694.89 a5.6 5.6 0 1 0 11.2 0 a5.6 5.6 0 1 0 -11.2 0zM45.62 1750.89 a5.6 5.6 0 1 0 11.2 0 a5.6 5.6 0 1 0 -11.2 0zM-2.88 1778.89 a5.6 5.6 0 1 0 11.2 0 a5.6 5.6 0 1 0 -11.2 0zM-51.38 1750.89 a5.6 5.6 0 1 0 11.2 0 a5.6 5.6 0 1 0 -11.2 0zM-51.38 1694.89 a5.6 5.6 0 1 0 11.2 0 a5.6 5.6 0 1 0 -11.2 0zM-2.88 2842.89 a5.6 5.6 0 1 0 11.2 0 a5.6 5.6 0 1 0 -11.2 0zM45.62 2870.89 a5.6 5.6 0 1 0 11.2 0 a5.6 5.6 0 1 0 -11.2 0zM45.62 2926.89 a5.6 5.6 0 1 0 11.2 0 a5.6 5.6 0 1 0 -11.2 0zM-2.88 2954.89 a5.6 5.6 0 1 0 11.2 0 a5.6 5.6 0 1 0 -11.2 0zM-51.38 2926.89 a5.6 5.6 0 1 0 11.2 0 a5.6 5.6 0 1 0 -11.2 0zM-51.38 2870.89 a5.6 5.6 0 1 0 11.2 0 a5.6 5.6 0 1 0 -11.2 0zM94.12 2954.89 a5.6 5.6 0 1 0 11.2 0 a5.6 5.6 0 1 0 -11.2 0zM94.12 3010.89 a5.6 5.6 0 1 0 11.2 0 a5.6 5.6 0 1 0 -11.2 0zM45.62 3038.89 a5.6 5.6 0 1 0 11.2 0 a5.6 5.6 0 1 0 -11.2 0zM-2.88 3010.89 a5.6 5.6 0 1 0 11.2 0 a5.6 5.6 0 1 0 -11.2 0zM-2.88 3514.89 a5.6 5.6 0 1 0 11.2 0 a5.6 5.6 0 1 0 -11.2 0zM45.62 3542.89 a5.6 5.6 0 1 0 11.2 0 a5.6 5.6 0 1 0 -11.2 0zM45.62 3598.89 a5.6 5.6 0 1 0 11.2 0 a5.6 5.6 0 1 0 -11.2 0zM-2.88 3626.89 a5.6 5.6 0 1 0 11.2 0 a5.6 5.6 0 1 0 -11.2 0zM-51.38 3598.89 a5.6 5.6 0 1 0 11.2 0 a5.6 5.6 0 1 0 -11.2 0zM-51.38 3542.89 a5.6 5.6 0 1 0 11.2 0 a5.6 5.6 0 1 0 -11.2 0zM94.12 3626.89 a5.6 5.6 0 1 0 11.2 0 a5.6 5.6 0 1 0 -11.2 0zM94.12 3682.89 a5.6 5.6 0 1 0 11.2 0 a5.6 5.6 0 1 0 -11.2 0zM45.62 3710.89 a5.6 5.6 0 1 0 11.2 0 a5.6 5.6 0 1 0 -11.2 0zM-2.88 3682.89 a5.6 5.6 0 1 0 11.2 0 a5.6 5.6 0 1 0 -11.2 0zM94.12 994.89 a5.6 5.6 0 1 0 11.2 0 a5.6 5.6 0 1 0 -11.2 0zM142.62 1022.89 a5.6 5.6 0 1 0 11.2 0 a5.6 5.6 0 1 0 -11.2 0zM142.62 1078.89 a5.6 5.6 0 1 0 11.2 0 a5.6 5.6 0 1 0 -11.2 0zM45.62 1022.89 a5.6 5.6 0 1 0 11.2 0 a5.6 5.6 0 1 0 -11.2 0zM142.62 1246.89 a5.6 5.6 0 1 0 11.2 0 a5.6 5.6 0 1 0 -11.2 0zM191.12 1274.89 a5.6 5.6 0 1 0 11.2 0 a5.6 5.6 0 1 0 -11.2 0zM191.12 1330.89 a5.6 5.6 0 1 0 11.2 0 a5.6 5.6 0 1 0 -11.2 0zM142.62 1358.89 a5.6 5.6 0 1 0 11.2 0 a5.6 5.6 0 1 0 -11.2 0zM94.12 1330.89 a5.6 5.6 0 1 0 11.2 0 a5.6 5.6 0 1 0 -11.2 0zM94.12 1274.89 a5.6 5.6 0 1 0 11.2 0 a5.6 5.6 0 1 0 -11.2 0zM142.62 1414.89 a5.6 5.6 0 1 0 11.2 0 a5.6 5.6 0 1 0 -11.2 0zM94.12 1442.89 a5.6 5.6 0 1 0 11.2 0 a5.6 5.6 0 1 0 -11.2 0zM45.62 1414.89 a5.6 5.6 0 1 0 11.2 0 a5.6 5.6 0 1 0 -11.2 0zM45.62 1358.89 a5.6 5.6 0 1 0 11.2 0 a5.6 5.6 0 1 0 -11.2 0zM94.12 1498.89 a5.6 5.6 0 1 0 11.2 0 a5.6 5.6 0 1 0 -11.2 0zM142.62 1526.89 a5.6 5.6 0 1 0 11.2 0 a5.6 5.6 0 1 0 -11.2 0zM142.62 1582.89 a5.6 5.6 0 1 0 11.2 0 a5.6 5.6 0 1 0 -11.2 0zM94.12 1610.89 a5.6 5.6 0 1 0 11.2 0 a5.6 5.6 0 1 0 -11.2 0zM45.62 1582.89 a5.6 5.6 0 1 0 11.2 0 a5.6 5.6 0 1 0 -11.2 0zM45.62 1526.89 a5.6 5.6 0 1 0 11.2 0 a5.6 5.6 0 1 0 -11.2 0zM94.12 1834.89 a5.6 5.6 0 1 0 11.2 0 a5.6 5.6 0 1 0 -11.2 0zM142.62 1862.89 a5.6 5.6 0 1 0 11.2 0 a5.6 5.6 0 1 0 -11.2 0zM142.62 1918.89 a5.6 5.6 0 1 0 11.2 0 a5.6 5.6 0 1 0 -11.2 0zM94.12 1946.89 a5.6 5.6 0 1 0 11.2 0 a5.6 5.6 0 1 0 -11.2 0zM45.62 1918.89 a5.6 5.6 0 1 0 11.2 0 a5.6 5.6 0 1 0 -11.2 0zM45.62 1862.89 a5.6 5.6 0 1 0 11.2 0 a5.6 5.6 0 1 0 -11.2 0zM94.12 2506.89 a5.6 5.6 0 1 0 11.2 0 a5.6 5.6 0 1 0 -11.2 0zM142.62 2534.89 a5.6 5.6 0 1 0 11.2 0 a5.6 5.6 0 1 0 -11.2 0zM142.62 2590.89 a5.6 5.6 0 1 0 11.2 0 a5.6 5.6 0 1 0 -11.2 0zM94.12 2618.89 a5.6 5.6 0 1 0 11.2 0 a5.6 5.6 0 1 0 -11.2 0zM45.62 2590.89 a5.6 5.6 0 1 0 11.2 0 a5.6 5.6 0 1 0 -11.2 0zM45.62 2534.89 a5.6 5.6 0 1 0 11.2 0 a5.6 5.6 0 1 0 -11.2 0zM94.12 3346.89 a5.6 5.6 0 1 0 11.2 0 a5.6 5.6 0 1 0 -11.2 0zM142.62 3374.89 a5.6 5.6 0 1 0 11.2 0 a5.6 5.6 0 1 0 -11.2 0zM142.62 3430.89 a5.6 5.6 0 1 0 11.2 0 a5.6 5.6 0 1 0 -11.2 0zM94.12 3458.89 a5.6 5.6 0 1 0 11.2 0 a5.6 5.6 0 1 0 -11.2 0zM45.62 3430.89 a5.6 5.6 0 1 0 11.2 0 a5.6 5.6 0 1 0 -11.2 0zM45.62 3374.89 a5.6 5.6 0 1 0 11.2 0 a5.6 5.6 0 1 0 -11.2 0zM142.62 3934.89 a5.6 5.6 0 1 0 11.2 0 a5.6 5.6 0 1 0 -11.2 0zM191.12 3962.89 a5.6 5.6 0 1 0 11.2 0 a5.6 5.6 0 1 0 -11.2 0zM191.12 4018.89 a5.6 5.6 0 1 0 11.2 0 a5.6 5.6 0 1 0 -11.2 0zM142.62 4046.89 a5.6 5.6 0 1 0 11.2 0 a5.6 5.6 0 1 0 -11.2 0zM94.12 4018.89 a5.6 5.6 0 1 0 11.2 0 a5.6 5.6 0 1 0 -11.2 0zM94.12 3962.89 a5.6 5.6 0 1 0 11.2 0 a5.6 5.6 0 1 0 -11.2 0zM142.62 4102.89 a5.6 5.6 0 1 0 11.2 0 a5.6 5.6 0 1 0 -11.2 0zM94.12 4130.89 a5.6 5.6 0 1 0 11.2 0 a5.6 5.6 0 1 0 -11.2 0zM45.62 4102.89 a5.6 5.6 0 1 0 11.2 0 a5.6 5.6 0 1 0 -11.2 0zM45.62 4046.89 a5.6 5.6 0 1 0 11.2 0 a5.6 5.6 0 1 0 -11.2 0zM191.12 -13.11 a5.6 5.6 0 1 0 11.2 0 a5.6 5.6 0 1 0 -11.2 0zM239.61 14.89 a5.6 5.6 0 1 0 11.2 0 a5.6 5.6 0 1 0 -11.2 0zM239.61 70.89 a5.6 5.6 0 1 0 11.2 0 a5.6 5.6 0 1 0 -11.2 0zM191.12 98.89 a5.6 5.6 0 1 0 11.2 0 a5.6 5.6 0 1 0 -11.2 0zM142.62 70.89 a5.6 5.6 0 1 0 11.2 0 a5.6 5.6 0 1 0 -11.2 0zM142.62 14.89 a5.6 5.6 0 1 0 11.2 0 a5.6 5.6 0 1 0 -11.2 0zM191.12 490.89 a5.6 5.6 0 1 0 11.2 0 a5.6 5.6 0 1 0 -11.2 0zM239.61 518.89 a5.6 5.6 0 1 0 11.2 0 a5.6 5.6 0 1 0 -11.2 0zM239.61 574.89 a5.6 5.6 0 1 0 11.2 0 a5.6 5.6 0 1 0 -11.2 0zM191.12 602.89 a5.6 5.6 0 1 0 11.2 0 a5.6 5.6 0 1 0 -11.2 0zM142.62 574.89 a5.6 5.6 0 1 0 11.2 0 a5.6 5.6 0 1 0 -11.2 0zM142.62 518.89 a5.6 5.6 0 1 0 11.2 0 a5.6 5.6 0 1 0 -11.2 0zM239.61 1078.89 a5.6 5.6 0 1 0 11.2 0 a5.6 5.6 0 1 0 -11.2 0zM288.11 1106.89 a5.6 5.6 0 1 0 11.2 0 a5.6 5.6 0 1 0 -11.2 0zM288.11 1162.89 a5.6 5.6 0 1 0 11.2 0 a5.6 5.6 0 1 0 -11.2 0zM239.61 1190.89 a5.6 5.6 0 1 0 11.2 0 a5.6 5.6 0 1 0 -11.2 0zM191.12 1162.89 a5.6 5.6 0 1 0 11.2 0 a5.6 5.6 0 1 0 -11.2 0zM191.12 1106.89 a5.6 5.6 0 1 0 11.2 0 a5.6 5.6 0 1 0 -11.2 0zM239.61 1358.89 a5.6 5.6 0 1 0 11.2 0 a5.6 5.6 0 1 0 -11.2 0zM239.61 1414.89 a5.6 5.6 0 1 0 11.2 0 a5.6 5.6 0 1 0 -11.2 0zM191.12 1442.89 a5.6 5.6 0 1 0 11.2 0 a5.6 5.6 0 1 0 -11.2 0zM288.11 1442.89 a5.6 5.6 0 1 0 11.2 0 a5.6 5.6 0 1 0 -11.2 0zM288.11 1498.89 a5.6 5.6 0 1 0 11.2 0 a5.6 5.6 0 1 0 -11.2 0zM239.61 1526.89 a5.6 5.6 0 1 0 11.2 0 a5.6 5.6 0 1 0 -11.2 0zM191.12 1498.89 a5.6 5.6 0 1 0 11.2 0 a5.6 5.6 0 1 0 -11.2 0zM191.12 1834.89 a5.6 5.6 0 1 0 11.2 0 a5.6 5.6 0 1 0 -11.2 0zM239.61 1862.89 a5.6 5.6 0 1 0 11.2 0 a5.6 5.6 0 1 0 -11.2 0zM239.61 1918.89 a5.6 5.6 0 1 0 11.2 0 a5.6 5.6 0 1 0 -11.2 0zM191.12 1946.89 a5.6 5.6 0 1 0 11.2 0 a5.6 5.6 0 1 0 -11.2 0zM191.12 2170.89 a5.6 5.6 0 1 0 11.2 0 a5.6 5.6 0 1 0 -11.2 0zM239.61 2198.89 a5.6 5.6 0 1 0 11.2 0 a5.6 5.6 0 1 0 -11.2 0zM239.61 2254.89 a5.6 5.6 0 1 0 11.2 0 a5.6 5.6 0 1 0 -11.2 0zM191.12 2282.89 a5.6 5.6 0 1 0 11.2 0 a5.6 5.6 0 1 0 -11.2 0zM142.62 2254.89 a5.6 5.6 0 1 0 11.2 0 a5.6 5.6 0 1 0 -11.2 0zM142.62 2198.89 a5.6 5.6 0 1 0 11.2 0 a5.6 5.6 0 1 0 -11.2 0zM288.11 2282.89 a5.6 5.6 0 1 0 11.2 0 a5.6 5.6 0 1 0 -11.2 0zM288.11 2338.89 a5.6 5.6 0 1 0 11.2 0 a5.6 5.6 0 1 0 -11.2 0zM239.61 2366.89 a5.6 5.6 0 1 0 11.2 0 a5.6 5.6 0 1 0 -11.2 0zM191.12 2338.89 a5.6 5.6 0 1 0 11.2 0 a5.6 5.6 0 1 0 -11.2 0zM239.61 2422.89 a5.6 5.6 0 1 0 11.2 0 a5.6 5.6 0 1 0 -11.2 0zM191.12 2450.89 a5.6 5.6 0 1 0 11.2 0 a5.6 5.6 0 1 0 -11.2 0zM142.62 2422.89 a5.6 5.6 0 1 0 11.2 0 a5.6 5.6 0 1 0 -11.2 0zM142.62 2366.89 a5.6 5.6 0 1 0 11.2 0 a5.6 5.6 0 1 0 -11.2 0zM288.11 2450.89 a5.6 5.6 0 1 0 11.2 0 a5.6 5.6 0 1 0 -11.2 0zM288.11 2506.89 a5.6 5.6 0 1 0 11.2 0 a5.6 5.6 0 1 0 -11.2 0zM239.61 2534.89 a5.6 5.6 0 1 0 11.2 0 a5.6 5.6 0 1 0 -11.2 0zM191.12 2506.89 a5.6 5.6 0 1 0 11.2 0 a5.6 5.6 0 1 0 -11.2 0zM239.61 3094.89 a5.6 5.6 0 1 0 11.2 0 a5.6 5.6 0 1 0 -11.2 0zM288.11 3122.89 a5.6 5.6 0 1 0 11.2 0 a5.6 5.6 0 1 0 -11.2 0zM288.11 3178.89 a5.6 5.6 0 1 0 11.2 0 a5.6 5.6 0 1 0 -11.2 0zM239.61 3206.89 a5.6 5.6 0 1 0 11.2 0 a5.6 5.6 0 1 0 -11.2 0zM191.12 3178.89 a5.6 5.6 0 1 0 11.2 0 a5.6 5.6 0 1 0 -11.2 0zM191.12 3122.89 a5.6 5.6 0 1 0 11.2 0 a5.6 5.6 0 1 0 -11.2 0zM191.12 3346.89 a5.6 5.6 0 1 0 11.2 0 a5.6 5.6 0 1 0 -11.2 0zM239.61 3374.89 a5.6 5.6 0 1 0 11.2 0 a5.6 5.6 0 1 0 -11.2 0zM239.61 3430.89 a5.6 5.6 0 1 0 11.2 0 a5.6 5.6 0 1 0 -11.2 0zM191.12 3458.89 a5.6 5.6 0 1 0 11.2 0 a5.6 5.6 0 1 0 -11.2 0zM288.11 3458.89 a5.6 5.6 0 1 0 11.2 0 a5.6 5.6 0 1 0 -11.2 0zM288.11 3514.89 a5.6 5.6 0 1 0 11.2 0 a5.6 5.6 0 1 0 -11.2 0zM239.61 3542.89 a5.6 5.6 0 1 0 11.2 0 a5.6 5.6 0 1 0 -11.2 0zM191.12 3514.89 a5.6 5.6 0 1 0 11.2 0 a5.6 5.6 0 1 0 -11.2 0zM191.12 3850.89 a5.6 5.6 0 1 0 11.2 0 a5.6 5.6 0 1 0 -11.2 0zM239.61 3878.89 a5.6 5.6 0 1 0 11.2 0 a5.6 5.6 0 1 0 -11.2 0zM239.61 3934.89 a5.6 5.6 0 1 0 11.2 0 a5.6 5.6 0 1 0 -11.2 0zM142.62 3878.89 a5.6 5.6 0 1 0 11.2 0 a5.6 5.6 0 1 0 -11.2 0zM288.11 154.89 a5.6 5.6 0 1 0 11.2 0 a5.6 5.6 0 1 0 -11.2 0zM336.61 182.89 a5.6 5.6 0 1 0 11.2 0 a5.6 5.6 0 1 0 -11.2 0zM336.61 238.89 a5.6 5.6 0 1 0 11.2 0 a5.6 5.6 0 1 0 -11.2 0zM288.11 266.89 a5.6 5.6 0 1 0 11.2 0 a5.6 5.6 0 1 0 -11.2 0zM239.61 238.89 a5.6 5.6 0 1 0 11.2 0 a5.6 5.6 0 1 0 -11.2 0zM239.61 182.89 a5.6 5.6 0 1 0 11.2 0 a5.6 5.6 0 1 0 -11.2 0zM288.11 490.89 a5.6 5.6 0 1 0 11.2 0 a5.6 5.6 0 1 0 -11.2 0zM336.61 518.89 a5.6 5.6 0 1 0 11.2 0 a5.6 5.6 0 1 0 -11.2 0zM336.61 574.89 a5.6 5.6 0 1 0 11.2 0 a5.6 5.6 0 1 0 -11.2 0zM288.11 602.89 a5.6 5.6 0 1 0 11.2 0 a5.6 5.6 0 1 0 -11.2 0zM336.61 1190.89 a5.6 5.6 0 1 0 11.2 0 a5.6 5.6 0 1 0 -11.2 0zM336.61 1246.89 a5.6 5.6 0 1 0 11.2 0 a5.6 5.6 0 1 0 -11.2 0zM288.11 1274.89 a5.6 5.6 0 1 0 11.2 0 a5.6 5.6 0 1 0 -11.2 0zM239.61 1246.89 a5.6 5.6 0 1 0 11.2 0 a5.6 5.6 0 1 0 -11.2 0zM288.11 1330.89 a5.6 5.6 0 1 0 11.2 0 a5.6 5.6 0 1 0 -11.2 0zM336.61 1358.89 a5.6 5.6 0 1 0 11.2 0 a5.6 5.6 0 1 0 -11.2 0zM336.61 1414.89 a5.6 5.6 0 1 0 11.2 0 a5.6 5.6 0 1 0 -11.2 0zM336.61 1750.89 a5.6 5.6 0 1 0 11.2 0 a5.6 5.6 0 1 0 -11.2 0zM385.11 1778.89 a5.6 5.6 0 1 0 11.2 0 a5.6 5.6 0 1 0 -11.2 0zM385.11 1834.89 a5.6 5.6 0 1 0 11.2 0 a5.6 5.6 0 1 0 -11.2 0zM336.61 1862.89 a5.6 5.6 0 1 0 11.2 0 a5.6 5.6 0 1 0 -11.2 0zM288.11 1834.89 a5.6 5.6 0 1 0 11.2 0 a5.6 5.6 0 1 0 -11.2 0zM288.11 1778.89 a5.6 5.6 0 1 0 11.2 0 a5.6 5.6 0 1 0 -11.2 0zM336.61 2366.89 a5.6 5.6 0 1 0 11.2 0 a5.6 5.6 0 1 0 -11.2 0zM336.61 2422.89 a5.6 5.6 0 1 0 11.2 0 a5.6 5.6 0 1 0 -11.2 0zM385.11 2450.89 a5.6 5.6 0 1 0 11.2 0 a5.6 5.6 0 1 0 -11.2 0zM385.11 2506.89 a5.6 5.6 0 1 0 11.2 0 a5.6 5.6 0 1 0 -11.2 0zM336.61 2534.89 a5.6 5.6 0 1 0 11.2 0 a5.6 5.6 0 1 0 -11.2 0zM288.11 2674.89 a5.6 5.6 0 1 0 11.2 0 a5.6 5.6 0 1 0 -11.2 0zM336.61 2702.89 a5.6 5.6 0 1 0 11.2 0 a5.6 5.6 0 1 0 -11.2 0zM336.61 2758.89 a5.6 5.6 0 1 0 11.2 0 a5.6 5.6 0 1 0 -11.2 0zM288.11 2786.89 a5.6 5.6 0 1 0 11.2 0 a5.6 5.6 0 1 0 -11.2 0zM239.61 2758.89 a5.6 5.6 0 1 0 11.2 0 a5.6 5.6 0 1 0 -11.2 0zM239.61 2702.89 a5.6 5.6 0 1 0 11.2 0 a5.6 5.6 0 1 0 -11.2 0zM385.11 2786.89 a5.6 5.6 0 1 0 11.2 0 a5.6 5.6 0 1 0 -11.2 0zM385.11 2842.89 a5.6 5.6 0 1 0 11.2 0 a5.6 5.6 0 1 0 -11.2 0zM336.61 2870.89 a5.6 5.6 0 1 0 11.2 0 a5.6 5.6 0 1 0 -11.2 0zM288.11 2842.89 a5.6 5.6 0 1 0 11.2 0 a5.6 5.6 0 1 0 -11.2 0zM336.61 3766.89 a5.6 5.6 0 1 0 11.2 0 a5.6 5.6 0 1 0 -11.2 0zM385.11 3794.89 a5.6 5.6 0 1 0 11.2 0 a5.6 5.6 0 1 0 -11.2 0zM385.11 3850.89 a5.6 5.6 0 1 0 11.2 0 a5.6 5.6 0 1 0 -11.2 0zM336.61 3878.89 a5.6 5.6 0 1 0 11.2 0 a5.6 5.6 0 1 0 -11.2 0zM288.11 3850.89 a5.6 5.6 0 1 0 11.2 0 a5.6 5.6 0 1 0 -11.2 0zM288.11 3794.89 a5.6 5.6 0 1 0 11.2 0 a5.6 5.6 0 1 0 -11.2 0zM288.11 4018.89 a5.6 5.6 0 1 0 11.2 0 a5.6 5.6 0 1 0 -11.2 0zM336.61 4046.89 a5.6 5.6 0 1 0 11.2 0 a5.6 5.6 0 1 0 -11.2 0zM336.61 4102.89 a5.6 5.6 0 1 0 11.2 0 a5.6 5.6 0 1 0 -11.2 0zM288.11 4130.89 a5.6 5.6 0 1 0 11.2 0 a5.6 5.6 0 1 0 -11.2 0zM239.61 4102.89 a5.6 5.6 0 1 0 11.2 0 a5.6 5.6 0 1 0 -11.2 0zM239.61 4046.89 a5.6 5.6 0 1 0 11.2 0 a5.6 5.6 0 1 0 -11.2 0z" fill="rgba(6, 80, 156, 0.93)"></path></g><defs><mask id="SvgjsMask1465"><rect width="375" height="4060" fill="#ffffff"></rect></mask></defs></svg>