<svg xmlns="http://www.w3.org/2000/svg" version="1.1" xmlns:xlink="http://www.w3.org/1999/xlink" xmlns:svgjs="http://svgjs.com/svgjs" width="768" height="512" preserveAspectRatio="none" viewBox="0 0 768 512"><g mask="url(&quot;#SvgjsMask1024&quot;)" fill="none"><rect width="768" height="512" x="0" y="0" fill="rgba(18, 60, 105, 1)"></rect><path d="M0,316.962C58.396,312.493,103.912,270.017,153.004,238.078C201.803,206.33,262.009,183.656,286.255,130.728C310.507,77.785,294.481,16.204,280.541,-40.336C267.673,-92.528,245.606,-141.717,209.31,-181.368C173.666,-220.308,127.74,-247.665,77.102,-262.585C26.432,-277.515,-26.251,-276.045,-78.122,-266.058C-134.315,-255.239,-195.966,-245.521,-233.931,-202.703C-272,-159.768,-272.119,-97.069,-278.52,-40.045C-284.737,15.335,-289.538,71.163,-270.555,123.558C-250.579,178.694,-216.538,228.603,-168.831,262.706C-119.749,297.792,-60.157,321.565,0,316.962" fill="#113964"></path><path d="M768 741.188C814.928 753.717 869.062 759.068 910.578 733.855 952.266 708.537 969.61 657.155 983.404 610.372 995.875 568.075 989.626 524.646 985.198 480.772 980.569 434.913 982.78 386.448 956.95 348.274 929.7470000000001 308.07 888.644 267.88 840.125 266.365 791.4110000000001 264.844 762.908 322.51300000000003 717.732 340.804 679.169 356.41700000000003 628.5 336.45 597.765 364.49 566.819 392.723 562.723 440.56100000000004 562.4739999999999 482.45 562.245 520.936 577.5740000000001 556.801 596.421 590.357 614.031 621.711 640.174 645.131 667.183 668.874 698.887 696.744 727.216 730.3 768 741.188" fill="#133f6e"></path></g><defs><mask id="SvgjsMask1024"><rect width="768" height="512" fill="#ffffff"></rect></mask></defs></svg>