<svg xmlns="http://www.w3.org/2000/svg" version="1.1" xmlns:xlink="http://www.w3.org/1999/xlink" xmlns:svgjs="http://svgjs.com/svgjs" width="1440" height="768" preserveAspectRatio="none" viewBox="0 0 1440 768"><g mask="url(&quot;#SvgjsMask1020&quot;)" fill="none"><rect width="1440" height="768" x="0" y="0" fill="rgba(18, 60, 105, 1)"></rect><path d="M0,309.801C61.566,310.967,119.208,295.316,177.981,276.945C256.967,252.256,371.723,260.647,402.728,183.92C434.23,105.961,321.576,38.691,307.773,-44.251C294.469,-124.192,374.044,-217.123,325.222,-281.806C277.306,-345.289,170.873,-299.874,95.551,-325.418C15.309,-352.631,-48.639,-465.51,-127.863,-435.462C-209.45,-404.518,-192.261,-278.756,-232.124,-201.136C-260.274,-146.322,-316.177,-107.665,-327.33,-47.063C-338.68,14.612,-321.158,77.744,-293.833,134.189C-266.922,189.779,-226.715,238.599,-173.701,270.283C-121.677,301.375,-60.596,308.653,0,309.801" fill="#113964"></path><path d="M1440 1379.0140000000001C1564.403 1401.4189999999999 1705.357 1414.624 1809.827 1343.462 1913.902 1272.569 1922.461 1126.743 1976.987 1013.234 2032.846 896.95 2132.977 797.187 2134.207 668.188 2135.507 531.866 2086.76 386.156 1983.817 296.78 1883.714 209.87 1736.157 222.59900000000005 1604.376 208.18600000000004 1494.264 196.14300000000003 1388.763 204.77599999999995 1279.003 219.69500000000005 1149.413 237.30899999999997 997.3109999999999 211.94399999999996 903.829 303.405 810.08 395.128 797.936 547.064 811.017 677.566 822.694 794.062 910.524 882.059 971.829 981.806 1025.077 1068.444 1069.358 1158.28 1146.902 1224.07 1232.913 1297.0430000000001 1328.99 1359.021 1440 1379.0140000000001" fill="#133f6e"></path></g><defs><mask id="SvgjsMask1020"><rect width="1440" height="768" fill="#ffffff"></rect></mask></defs></svg>