<svg xmlns="http://www.w3.org/2000/svg" version="1.1" xmlns:xlink="http://www.w3.org/1999/xlink" xmlns:svgjs="http://svgjs.com/svgjs" width="540" height="406" preserveAspectRatio="none" viewBox="0 0 540 406"><g mask="url(&quot;#SvgjsMask1012&quot;)" fill="none"><rect width="540" height="406" x="0" y="0" fill="rgba(18, 60, 105, 1)"></rect><path d="M0,247.205C45.322,243.517,79.305,205.789,111.832,174.014C139.311,147.171,159.114,114.779,172.44,78.751C184.997,44.803,186.337,9.439,186.095,-26.756C185.817,-68.362,191.453,-111.917,170.923,-148.106C148.524,-187.59,112.758,-223.069,68.647,-233.791C25.018,-244.396,-17.567,-219,-59.967,-204.229C-100.217,-190.206,-147.313,-183.889,-172.753,-149.691C-197.849,-115.955,-180.611,-68.156,-191.418,-27.522C-204.271,20.804,-256.524,62.66,-241.952,110.496C-227.683,157.338,-166.807,169.132,-124.175,193.22C-84.068,215.882,-45.915,250.941,0,247.205" fill="#113964"></path><path d="M540 575.789C581.523 584.677 625.693 617.689 662.943 597.303 699.671 577.203 693.49 522.076 709.119 483.234 723.855 446.61 756.732 414.706 752.192 375.491 747.6320000000001 336.102 717.99 302.696 685.5740000000001 279.859 656.551 259.41200000000003 617.634 267.587 583.793 256.855 548.885 245.784 520.793 214.333 484.21 215.998 444.484 217.806 404.433 235.913 378.652 266.19100000000003 352.943 296.384 351.85699999999997 338.88599999999997 346.158 378.13 340.452 417.429 325.474 460.528 345.449 494.849 365.28 528.922 410.39099999999996 535.892 446.791 551.0360000000001 477.085 563.639 507.916 568.922 540 575.789" fill="#133f6e"></path></g><defs><mask id="SvgjsMask1012"><rect width="540" height="406" fill="#ffffff"></rect></mask></defs></svg>