<svg xmlns="http://www.w3.org/2000/svg" version="1.1" xmlns:xlink="http://www.w3.org/1999/xlink" xmlns:svgjs="http://svgjs.com/svgjs" width="375" height="406" preserveAspectRatio="none" viewBox="0 0 375 406"><g mask="url(&quot;#SvgjsMask1022&quot;)" fill="none"><rect width="375" height="406" x="0" y="0" fill="rgba(18, 60, 105, 1)"></rect><path d="M0,140.445C26.055,138.433,47.739,122.597,70.146,109.149C93.272,95.269,123.227,85.871,132.888,60.688C142.52,35.579,124.265,9.234,118.557,-17.046C113.324,-41.141,114.811,-67.045,100.746,-87.297C85.917,-108.65,62.127,-120.594,38.748,-131.963C11.331,-145.296,-16.899,-165.495,-46.685,-158.995C-76.699,-152.445,-95.991,-123.648,-113.86,-98.66C-130.467,-75.437,-139.28,-48.79,-145.43,-20.91C-152.022,8.974,-164.069,41.292,-150.818,68.876C-137.6,96.391,-105.05,107.463,-77.473,120.55C-52.888,132.217,-27.132,142.54,0,140.445" fill="#113964"></path><path d="M375 564.733C405.25 566.941 432.645 551.225 460.24 538.637 492.246 524.037 531.466 515.973 548.889 485.41200000000003 566.516 454.492 559.6610000000001 415.124 550.218 380.808 541.4929999999999 349.102 523.469 320.132 497.764 299.624 474.397 280.981 443.823 276.68399999999997 414.249 272.329 388.154 268.48699999999997 363.181 275.73 336.806 275.924 297.865 276.211 254.66899999999998 251.993 222.366 273.74199999999996 190.89 294.93399999999997 179.172 340.993 184.329 378.586 189.259 414.529 226.426 434.959 248.436 463.8 264.897 485.37 276.18600000000004 509.832 297.399 526.749 320.381 545.077 345.683 562.593 375 564.733" fill="#133f6e"></path></g><defs><mask id="SvgjsMask1022"><rect width="375" height="406" fill="#ffffff"></rect></mask></defs></svg>