<svg xmlns="http://www.w3.org/2000/svg" version="1.1" xmlns:xlink="http://www.w3.org/1999/xlink" xmlns:svgjs="http://svgjs.com/svgjs" width="414" height="406" preserveAspectRatio="none" viewBox="0 0 414 406"><g mask="url(&quot;#SvgjsMask1006&quot;)" fill="none"><rect width="414" height="406" x="0" y="0" fill="rgba(18, 60, 105, 1)"></rect><path d="M0,139.944C29.973,136.716,59.634,146.253,88.58,137.834C125.055,127.225,170.369,119.546,187.206,85.494C203.99,51.551,182.164,11.143,168.73,-24.26C157.531,-53.773,137.455,-77.341,116.47,-100.922C95.763,-124.191,75.795,-148.417,47.217,-160.808C16.32,-174.204,-18.333,-181.9,-50.947,-173.51C-84.034,-164.998,-109.302,-139.904,-132.287,-114.628C-155.737,-88.841,-182.937,-61.357,-184.595,-26.541C-186.227,7.731,-154.837,32.993,-140.807,64.304C-126.642,95.917,-132.273,141.942,-101.756,158.335C-70.764,174.984,-34.979,143.712,0,139.944" fill="#113964"></path><path d="M414 547.598C439.828 550.953 460.4 525.021 478.382 506.18 493.525 490.31399999999996 500.681 469.616 508.122 448.984 514.981 429.965 520.298 410.974 520.0070000000001 390.758 519.683 368.235 517.229 345.701 506.354 325.975 493.80899999999997 303.219 479.323 275.252 453.759 270.592 427.904 265.879 407.277 291.554 383.951 303.66200000000003 365.532 313.222 344.206 318.081 331.16700000000003 334.225 318.327 350.123 318.954 371.927 313.023 391.48199999999997 305.825 415.215 282.058 438.994 292.582 461.45 303.133 483.96500000000003 339.26 476.355 359.539 490.743 381.385 506.243 387.437 544.148 414 547.598" fill="#133f6e"></path></g><defs><mask id="SvgjsMask1006"><rect width="414" height="406" fill="#ffffff"></rect></mask></defs></svg>