<svg xmlns="http://www.w3.org/2000/svg" version="1.1" xmlns:xlink="http://www.w3.org/1999/xlink" xmlns:svgjs="http://svgjs.com/svgjs" width="1024" height="512" preserveAspectRatio="none" viewBox="0 0 1024 512"><g mask="url(&quot;#SvgjsMask1008&quot;)" fill="none"><rect width="1024" height="512" x="0" y="0" fill="rgba(18, 60, 105, 1)"></rect><path d="M0,316.216C60.75,318.472,123.258,303.948,171.914,267.503C219.07,232.182,245.433,176.234,262.267,119.773C277.586,68.395,273.061,14.844,262.944,-37.806C253.224,-88.391,232.628,-134.184,205.102,-177.722C173.363,-227.923,147.776,-292.478,90.971,-309.818C34.154,-327.162,-21.772,-284.525,-77.516,-263.994C-129.295,-244.924,-182.589,-230.623,-223.771,-193.898C-268.757,-153.781,-313.437,-105.959,-321.683,-46.251C-329.917,13.37,-295.338,68.806,-267.415,122.124C-240.825,172.898,-210.285,221.366,-163.9,255.033C-115.73,289.995,-59.48,314.007,0,316.216" fill="#113964"></path><path d="M1024 951.332C1107.767 944.727 1196.083 933.9200000000001 1260.405 879.854 1321.9850000000001 828.092 1339.283 743.635 1362.6680000000001 666.664 1383.296 598.77 1393.136 530.431 1388.071 459.654 1382.679 384.31 1382.421 301.373 1332.473 244.707 1282.615 188.144 1198.085 186.59500000000003 1126.503 162.90699999999998 1052.024 138.26 978.144 77.61700000000002 903.87 102.87400000000002 829.476 128.17200000000003 805.303 219.755 763.56 286.328 728.23 342.674 686.4649999999999 396.297 678.486 462.323 670.6030000000001 527.561 707.6179999999999 586.434 719.485 651.067 736.164 741.908 696.592 854.277 762.357 919.124 826.221 982.096 934.5889999999999 958.3820000000001 1024 951.332" fill="#133f6e"></path></g><defs><mask id="SvgjsMask1008"><rect width="1024" height="512" fill="#ffffff"></rect></mask></defs></svg>