<svg xmlns="http://www.w3.org/2000/svg" version="1.1" xmlns:xlink="http://www.w3.org/1999/xlink" xmlns:svgjs="http://svgjs.com/svgjs" width="1024" height="400" preserveAspectRatio="none" viewBox="0 0 1024 400"><g mask="url(&quot;#SvgjsMask1014&quot;)" fill="none"><rect width="1024" height="400" x="0" y="0" fill="rgba(172, 180, 189, 1)"></rect><path d="M 0,17 C 41,60.4 123,199.4 205,234 C 287,268.6 328,186.8 410,190 C 492,193.2 533,257.4 615,250 C 697,242.6 738.2,123 820,153 C 901.8,183 983.2,350.6 1024,400L1024 400L0 400z" fill="rgba(181, 186, 191, 1)"></path><path d="M 0,202 C 68.4,196 205.2,140.2 342,172 C 478.8,203.8 547.6,366.8 684,361 C 820.4,355.2 956,186.6 1024,143L1024 400L0 400z" fill="rgba(209, 208, 208, 1)"></path></g><defs><mask id="SvgjsMask1014"><rect width="1024" height="400" fill="#ffffff"></rect></mask></defs></svg>